<svg width="200" height="209" viewBox="0 0 200 209" fill="none" xmlns="http://www.w3.org/2000/svg">
<path d="M199.175 104.358C199.184 118.497 196.449 132.491 191.135 145.487C185.821 158.484 178.04 170.212 168.265 179.957H31.3631C28.7591 177.55 26.3012 174.974 24.0036 172.245L23.3331 171.388C17.6091 164.241 -0.928597 138.927 0.0363096 104.29C1.33648 56.3781 39.8264 0 99.5934 0C126.004 0 151.333 10.9948 170.008 30.5658C188.683 50.1368 199.175 76.6807 199.175 104.358Z" fill="#8A4CA8"/>
<path d="M156.858 166.555C152.77 180.266 126.071 187.627 99.945 187.773C73.8271 187.627 47.0959 180.309 43.0401 166.555C40.5869 158.363 48.1753 154.438 51.3562 133.374C54.3327 113.707 47.9709 109.791 49.3528 87.4079C50.2687 72.8399 51.1682 58.5633 60.8009 46.1462C74.7021 28.3733 96.4533 27.8848 99.2336 27.8505C101.744 27.8505 124.444 27.9191 138.934 46.1462C151.854 62.4281 150.177 83.5688 150.423 87.4079C151.829 109.783 145.467 113.699 148.444 133.366C151.723 154.438 159.279 158.363 156.858 166.555Z" fill="#2D2D2D"/>
<path d="M175.862 171.474C173.481 174.443 170.942 177.27 168.257 179.94C149.748 198.44 125.146 208.75 99.5688 208.725C78.3818 208.725 60.6537 201.012 47.6929 192.64C41.9101 188.915 36.4464 184.672 31.3631 179.957C28.7604 177.548 26.3026 174.972 24.0036 172.245C23.8073 172.022 23.5947 171.739 23.3249 171.388C29.4511 164.973 36.407 159.492 43.9886 155.106C51.16 150.964 58.7559 147.687 66.6312 145.337C77.5668 155.483 88.5079 165.621 99.4544 175.75L132.58 145.337C132.809 145.414 133.063 145.474 133.291 145.543C133.359 145.585 133.434 145.611 133.512 145.62C141.024 147.945 148.278 151.105 155.149 155.046C162.753 159.478 169.726 165.008 175.862 171.474Z" fill="#293347"/>
<path d="M132.556 145.431L99.4299 175.844C88.4725 165.709 77.5314 155.572 66.6067 145.431L67.4244 145.191L68.1276 144.986C68.3239 144.926 68.5529 144.874 68.79 144.797H68.8391C69.6568 144.574 70.6707 144.292 71.7665 144.026C80.9958 152.315 90.2196 160.599 99.438 168.877C108.776 160.576 118.109 152.293 127.437 144.026C129.865 144.626 131.762 145.191 132.556 145.431Z" fill="#DCD8FF"/>
<path d="M127.404 144.026C118.066 152.315 108.733 160.599 99.4053 168.877C90.1706 160.576 80.9467 152.293 71.7338 144.026C72.9113 143.726 74.1869 143.443 75.4053 143.169C76.6237 142.895 77.7195 142.698 78.8152 142.509C79.3752 141.071 79.829 139.59 80.1726 138.079C80.3689 137.222 80.516 136.468 80.6223 135.714C82.8036 137.636 85.2279 139.234 87.8264 140.461C88.2435 140.65 88.7096 140.881 89.2656 141.121C92.4338 142.531 95.8406 143.257 99.2827 143.257C102.725 143.257 106.131 142.531 109.3 141.121C110.036 140.804 110.682 140.504 111.205 140.264C113.764 139.003 116.156 137.399 118.319 135.491C118.556 136.605 118.842 137.762 119.137 138.987C119.431 140.213 119.889 141.447 120.29 142.552C120.3 142.547 120.311 142.544 120.323 142.544C120.334 142.544 120.345 142.547 120.355 142.552C121.394 142.741 122.367 142.92 123.225 143.109C124.722 143.366 126.079 143.692 127.404 144.026Z" fill="#FFDBB4"/>
<path opacity="0.2" d="M133.504 145.68C132.817 146.537 132.122 147.282 131.403 148.028C129.799 149.717 128.08 151.281 126.259 152.707C123.873 154.586 121.265 156.133 118.499 157.309C116.765 158.057 114.962 158.617 113.118 158.98C111.502 159.307 109.858 159.459 108.212 159.434C104.958 159.369 101.744 158.669 98.7348 157.369L98.1951 157.137C95.7935 156.065 93.5186 154.705 91.4162 153.084C87.4545 149.989 83.9616 146.286 81.0557 142.098C80.5896 141.438 80.1235 140.761 79.6819 140.067C79.7637 139.767 79.8537 139.467 79.9436 139.141C80.2406 138.013 80.4808 136.869 80.6632 135.714C81.1457 136.125 81.6526 136.519 82.1351 136.896C83.4636 137.914 84.86 138.83 86.3136 139.638L86.7388 139.887L87.2622 140.161L87.8673 140.461L88.2271 140.632L88.5297 140.787L88.9058 140.95L89.2819 141.104L89.4455 141.181C89.5927 141.258 89.7317 141.309 89.8789 141.369C90.0261 141.429 90.255 141.498 90.4349 141.575C90.6312 141.652 90.8274 141.729 91.0073 141.781L91.1545 141.841L91.5797 141.969C91.7842 142.046 91.9968 142.124 92.193 142.175C92.2907 142.19 92.3865 142.216 92.4792 142.252L93.068 142.423C94.2872 142.75 95.5282 142.979 96.7804 143.109C96.9111 143.118 97.0422 143.118 97.1729 143.109C97.2627 143.118 97.353 143.118 97.4428 143.109C97.6082 143.132 97.7747 143.146 97.9416 143.152H98.3913H99.3807C102.08 143.133 104.759 142.67 107.321 141.781H107.37C107.46 141.738 107.574 141.704 107.664 141.669C108.196 141.498 108.719 141.275 109.259 141.061C109.303 141.034 109.35 141.011 109.398 140.992C109.635 140.898 109.864 140.787 110.076 140.692L110.256 140.615C112.647 139.482 114.914 138.083 117.019 136.442L118.344 135.371C118.581 136.536 118.9 137.796 119.276 139.107C119.652 140.418 119.979 141.404 120.355 142.432L121.247 142.603L122.146 142.775L123.021 142.946L123.683 143.092C123.829 143.115 123.974 143.147 124.117 143.186C125.229 143.435 126.341 143.675 127.388 143.957C129.132 144.386 130.849 144.854 132.539 145.363L133.504 145.68Z" fill="black"/>
<path d="M147.021 97.554C146.89 102.002 144.183 106.5 141.15 108.154C140.743 108.379 140.312 108.552 139.866 108.669H139.768C139.197 108.814 138.602 108.826 138.025 108.705C137.449 108.584 136.905 108.331 136.432 107.966C136.35 107.914 136.273 107.853 136.203 107.786C135.862 107.509 135.554 107.189 135.287 106.835C133.103 104.084 132.204 98.8994 133.651 94.769C134.237 93.151 135.137 91.6776 136.293 90.4414C137.263 89.346 138.52 88.5741 139.907 88.2219C140.543 88.0848 141.2 88.0848 141.837 88.2219C145.467 88.9932 147.127 93.8349 147.021 97.554Z" fill="#FFDBB4"/>
<path opacity="0.3" d="M147.021 97.5541C146.89 102.002 144.184 106.492 141.158 108.163C140.743 108.373 140.31 108.542 139.866 108.669C139.866 108.669 139.809 108.669 139.76 108.669C139.189 108.811 138.595 108.822 138.019 108.702C137.444 108.583 136.899 108.334 136.423 107.974L136.194 107.786C135.859 107.511 135.557 107.195 135.295 106.843C133.087 104.084 132.212 98.8995 133.66 94.769C134.24 93.1499 135.137 91.6758 136.293 90.4415C137.02 89.6534 137.883 89.0166 138.836 88.5648C139.178 88.4159 139.534 88.3039 139.899 88.2306C140.535 88.0892 141.192 88.0892 141.829 88.2306C141.925 88.2502 142.021 88.276 142.115 88.3077C145.565 89.2503 147.127 93.9464 147.021 97.5541Z" fill="black"/>
<path d="M63.8183 106.869C63.4884 107.297 63.1031 107.675 62.6735 107.992C62.2001 108.357 61.6561 108.609 61.0797 108.731C60.5033 108.852 59.9085 108.84 59.3372 108.694H59.239C58.793 108.578 58.3619 108.405 57.9552 108.18C54.9215 106.526 52.2312 102.027 52.084 97.5798C51.9777 93.8607 53.6377 89.0104 57.2438 88.2649C59.2881 87.8278 61.2506 88.8733 62.7879 90.4929C63.9464 91.7269 64.846 93.2009 65.4292 94.8204C66.9011 98.9252 66.0016 104.101 63.8183 106.869Z" fill="#FFDBB4"/>
<path d="M139.923 88.1963V88.2648C139.923 88.5991 139.923 88.959 139.923 89.3103C139.523 95.6303 138.282 101.861 136.235 107.82C135.998 108.514 135.745 109.208 135.499 109.903C131.623 120.254 125.564 129.381 118.327 135.448L117.003 136.519C114.898 138.16 112.63 139.559 110.24 140.692L110.06 140.77C109.848 140.864 109.619 140.975 109.381 141.07C109.333 141.089 109.287 141.111 109.242 141.138C108.703 141.352 108.179 141.575 107.648 141.746C107.558 141.746 107.443 141.815 107.353 141.858H107.304C104.742 142.747 102.063 143.21 99.3644 143.229H98.375H97.9252C97.7584 143.224 97.5919 143.209 97.4264 143.186C97.3366 143.195 97.2463 143.195 97.1566 143.186C97.0259 143.195 96.8948 143.195 96.7641 143.186C95.5176 143.058 94.2821 142.832 93.068 142.509L92.4792 142.338C92.3865 142.302 92.2907 142.276 92.193 142.261C91.9968 142.209 91.7842 142.132 91.5797 142.055L91.1545 141.926L91.0073 141.866C90.8274 141.815 90.6312 141.738 90.4349 141.661C90.255 141.584 90.0751 141.524 89.8789 141.455C89.6826 141.387 89.5927 141.344 89.4455 141.267L89.2819 141.189L88.9058 141.035L88.5297 140.872L88.2271 140.718L87.8673 140.547L87.2622 140.247L86.7388 139.973L86.3136 139.724C84.86 138.916 83.4636 137.999 82.1351 136.982C81.6526 136.605 81.1457 136.211 80.6632 135.799C80.0336 135.268 79.4285 134.728 78.8152 134.163C78.2019 133.597 77.6131 133.014 77.0407 132.397C76.4683 131.78 75.8632 131.155 75.3235 130.521C74.7838 129.886 74.1951 129.201 73.6881 128.532C65.5792 117.889 60.6242 104.989 59.4353 91.427C59.3453 90.57 59.2963 89.6617 59.2554 88.779C59.1158 85.6714 59.206 82.5571 59.5252 79.4641C59.6724 78.2044 59.8278 76.9618 60.0486 75.7278C60.3184 74.2196 60.6373 72.7028 61.0543 71.1603C61.9975 67.4514 63.2677 63.8424 64.8486 60.38C68.3075 52.7704 73.3119 45.6149 79.5675 40.5247C85.2915 35.8801 91.9886 32.9494 99.5361 32.9322C111.704 32.8722 121.778 40.3705 128.827 50.4566C131.688 54.5593 134.058 59.0144 135.884 63.7221C136.35 64.9047 136.767 66.0872 137.159 67.2869C138.053 70.0431 138.753 72.8643 139.253 75.7278C139.457 76.9275 139.629 78.1444 139.76 79.3698C140.03 82.3032 140.085 85.2541 139.923 88.1963Z" fill="#FFDBB4"/>
<path d="M88.8942 125.225C89.551 130.823 94.5489 135.175 100.617 135.175C106.704 135.175 111.714 130.796 112.346 125.173C112.397 124.721 111.865 123.97 111.198 123.97C101.951 123.97 94.8667 123.97 90.1166 123.97C89.446 123.97 88.8285 124.665 88.8942 125.225Z" fill="black" fill-opacity="0.7"/>
<mask id="mask0_4_78" style="mask-type:luminance" maskUnits="userSpaceOnUse" x="88" y="123" width="25" height="13">
<path d="M88.8942 125.225C89.551 130.823 94.5489 135.175 100.617 135.175C106.704 135.175 111.714 130.796 112.346 125.173C112.397 124.721 111.865 123.97 111.198 123.97C101.951 123.97 94.8667 123.97 90.1166 123.97C89.446 123.97 88.8285 124.665 88.8942 125.225Z" fill="white"/>
</mask>
<g mask="url(#mask0_4_78)">
<path fill-rule="evenodd" clip-rule="evenodd" d="M94.4086 117.483H107.446C109.161 117.483 110.551 118.803 110.551 120.431V123.97C110.551 125.599 109.161 126.919 107.446 126.919H94.4086C92.6942 126.919 91.3044 125.599 91.3044 123.97V120.431C91.3044 118.803 92.6942 117.483 94.4086 117.483Z" fill="white"/>
</g>
<mask id="mask1_4_78" style="mask-type:luminance" maskUnits="userSpaceOnUse" x="88" y="123" width="25" height="13">
<path d="M88.6699 125.245C89.3329 130.933 94.3787 135.355 100.505 135.355C106.65 135.355 111.708 130.905 112.346 125.192C112.397 124.733 111.86 123.97 111.187 123.97C101.852 123.97 94.6995 123.97 89.904 123.97C89.2269 123.97 88.6035 124.676 88.6699 125.245Z" fill="white"/>
</mask>
<g mask="url(#mask1_4_78)">
<path d="M97.371 143.744C101.179 143.744 104.266 140.793 104.266 137.153C104.266 133.512 101.179 130.561 97.371 130.561C93.5632 130.561 90.4764 133.512 90.4764 137.153C90.4764 140.793 93.5632 143.744 97.371 143.744Z" fill="#FF4F6D"/>
<path d="M103.639 143.744C107.447 143.744 110.533 140.793 110.533 137.153C110.533 133.512 107.447 130.561 103.639 130.561C99.831 130.561 96.7442 133.512 96.7442 137.153C96.7442 140.793 99.831 143.744 103.639 143.744Z" fill="#FF4F6D"/>
</g>
<path fill-rule="evenodd" clip-rule="evenodd" d="M92.0121 112.096C92.0121 115.081 95.4367 117.5 99.6612 117.5C103.886 117.5 107.31 115.081 107.31 112.096" fill="black" fill-opacity="0.16"/>
<path fill-rule="evenodd" clip-rule="evenodd" d="M74.2662 100.239C75.4433 97.6733 78.0935 95.8842 81.1743 95.8842C84.2442 95.8842 86.8866 97.6607 88.0698 100.212C88.4213 100.97 87.9211 101.591 87.4166 101.131C85.8542 99.7074 83.6355 98.8185 81.1743 98.8185C78.7901 98.8185 76.6334 99.6527 75.0805 100.999C74.5127 101.491 73.922 100.99 74.2662 100.239Z" fill="black" fill-opacity="0.6"/>
<path fill-rule="evenodd" clip-rule="evenodd" d="M111.237 100.239C112.414 97.6733 115.064 95.8842 118.145 95.8842C121.215 95.8842 123.857 97.6607 125.04 100.212C125.392 100.97 124.892 101.591 124.387 101.131C122.825 99.7074 120.606 98.8185 118.145 98.8185C115.761 98.8185 113.604 99.6527 112.051 100.999C111.483 101.491 110.893 100.99 111.237 100.239Z" fill="black" fill-opacity="0.6"/>
<path fill-rule="evenodd" clip-rule="evenodd" d="M80.8873 83.8254C77.1858 84.0066 71.2016 86.857 71.3557 90.8127C71.3608 90.9421 71.5403 90.999 71.628 90.8994C73.384 88.9004 85.8523 86.8804 90.2439 87.9508C90.6458 88.0489 90.9512 87.6288 90.6966 87.3252C88.5153 84.7257 84.2035 83.6597 80.8873 83.8254Z" fill="black" fill-opacity="0.6"/>
<path fill-rule="evenodd" clip-rule="evenodd" d="M119.072 83.8254C122.774 84.0066 128.758 86.857 128.604 90.8127C128.599 90.9421 128.419 90.999 128.332 90.8994C126.576 88.9004 114.107 86.8804 109.716 87.9508C109.314 88.0489 109.009 87.6288 109.263 87.3252C111.444 84.7257 115.756 83.6597 119.072 83.8254Z" fill="black" fill-opacity="0.6"/>
<path opacity="0.2" d="M139.972 88.2648C139.899 89.4903 139.809 90.4843 139.702 91.5384C139.539 93.1923 139.457 93.9978 139.416 94.0578C138.435 95.7716 130.601 94.3148 119.161 87.9135C110.256 82.9175 109.283 80.9466 100.648 75.4364C87.7855 67.2184 81.3419 63.0622 74.2278 64.2705C63.0169 66.1472 57.1947 78.9156 55.0768 78.1701C57.4809 78.71 61.2588 65.4702 71.5866 61.8882C81.9143 58.3062 94.2292 66.0444 106.879 73.9454C110.862 76.4476 116.079 80.201 124.714 84.3401C136.636 90.0301 139.056 88.8476 139.956 88.2477C139.956 88.2648 139.956 88.2648 139.972 88.2648Z" fill="black"/>
<path d="M139.972 88.2648C139.073 88.8647 136.652 90.0473 124.73 84.3572C116.095 80.2182 110.878 76.4648 106.896 73.9625C94.2455 66.0615 81.947 58.3576 71.6029 61.9053C61.2588 65.4531 57.4646 78.7099 55.0768 78.1701L54.9378 78.1101C53.1634 77.2531 54.3082 69.2236 56.9249 62.3081C60.8663 51.922 70.7443 37.1998 88.2434 32.4095C91.9641 31.3897 106.348 27.6877 120.363 36.1457C134.216 44.5009 138.304 58.6318 140.185 65.2217C140.831 67.5354 145.623 84.2715 139.972 88.2648Z" fill="#2D2D2D"/>
</svg>
