<svg width="474" height="438" viewBox="0 0 474 438" fill="none" xmlns="http://www.w3.org/2000/svg">
<path fill-rule="evenodd" clip-rule="evenodd" d="M408.345 25.2672C408.056 31.3613 407.853 35.8187 407.639 40.2741C407.492 43.3221 405.123 44.7866 399.42 45.2539C397.708 45.3938 395.946 45.4033 394.206 45.4185C383.84 45.5089 373.48 45.2653 363.157 44.8885C353.572 44.5383 343.981 44.8295 334.411 44.5135C332.562 44.4526 330.692 44.4107 328.887 44.2166C324.486 43.7465 322.223 42.3971 322.19 40.0381C322.143 36.4962 322.263 32.9524 322.488 29.4115C322.626 27.238 322.667 25.0683 322.553 22.8987C322.384 19.6384 322.45 16.3868 323.025 13.1361C323.61 9.81498 326.198 8.3476 332.565 7.91557C337.436 7.58441 342.356 7.53873 347.252 7.49781C363.074 7.36649 378.85 7.97362 394.629 8.50366C397.131 8.58741 399.644 8.60739 402.144 8.70731C406.158 8.86623 407.423 9.45337 408.487 11.505C408.98 12.4557 409.002 13.4244 409.048 14.396C409.224 18.5745 408.556 22.7359 408.345 25.2672Z" fill="#4791A9"/>
<path d="M338.184 20.7084V28.3804C338.184 30.2937 337.316 31.2504 335.58 31.2504C335.216 31.2504 334.861 31.1944 334.516 31.0824V29.6404C334.88 29.7617 335.202 29.8224 335.482 29.8224C336.266 29.8224 336.658 29.351 336.658 28.4084V20.7084H338.184ZM344.488 31.1384V30.3964C344.03 30.9937 343.372 31.2924 342.514 31.2924C341.58 31.2924 340.89 31.031 340.442 30.5084C340.124 30.1257 339.966 29.659 339.966 29.1084C339.966 27.2044 341.366 26.2524 344.166 26.2524H344.376V26.0004C344.376 25.0857 343.951 24.6284 343.102 24.6284C342.336 24.6284 341.58 24.829 340.834 25.2304V23.8584C341.543 23.4944 342.327 23.3124 343.186 23.3124C344.082 23.3124 344.735 23.5224 345.146 23.9424C345.584 24.3997 345.804 25.109 345.804 26.0704V29.3324C345.804 30.191 345.832 30.793 345.888 31.1384H344.488ZM344.376 27.5544H344.082C343.354 27.5544 342.794 27.6197 342.402 27.7504C341.776 27.9557 341.464 28.3617 341.464 28.9684C341.464 29.6404 341.851 29.9764 342.626 29.9764C343.792 29.9764 344.376 29.267 344.376 27.8484V27.5544ZM353.796 23.5084L351.136 31.0684H349.75L347.188 23.5084H348.714L350.478 29.0104L352.298 23.5084H353.796ZM359.239 31.1384V30.3964C358.782 30.9937 358.124 31.2924 357.265 31.2924C356.332 31.2924 355.641 31.031 355.193 30.5084C354.876 30.1257 354.717 29.659 354.717 29.1084C354.717 27.2044 356.117 26.2524 358.917 26.2524H359.127V26.0004C359.127 25.0857 358.703 24.6284 357.853 24.6284C357.088 24.6284 356.332 24.829 355.585 25.2304V23.8584C356.295 23.4944 357.079 23.3124 357.937 23.3124C358.833 23.3124 359.487 23.5224 359.897 23.9424C360.336 24.3997 360.555 25.109 360.555 26.0704V29.3324C360.555 30.191 360.583 30.793 360.639 31.1384H359.239ZM359.127 27.5544H358.833C358.105 27.5544 357.545 27.6197 357.153 27.7504C356.528 27.9557 356.215 28.3617 356.215 28.9684C356.215 29.6404 356.603 29.9764 357.377 29.9764C358.544 29.9764 359.127 29.267 359.127 27.8484V27.5544ZM367.764 22.2904C367.298 22.057 366.672 21.9404 365.888 21.9404C364.675 21.9404 364.068 22.3884 364.068 23.2844C364.068 23.7137 364.446 24.1664 365.202 24.6424C365.828 25.0437 366.318 25.361 366.672 25.5944C367.027 25.8277 367.242 25.9817 367.316 26.0564C368.072 26.719 368.45 27.4844 368.45 28.3524C368.45 29.323 368.077 30.0837 367.33 30.6344C366.696 31.101 365.935 31.3344 365.048 31.3344C364.162 31.3344 363.35 31.171 362.612 30.8444L362.794 29.2904C363.494 29.6824 364.264 29.8784 365.104 29.8784C366.346 29.8784 366.966 29.3324 366.966 28.2404C366.966 27.811 366.588 27.3444 365.832 26.8404C365.151 26.383 364.633 26.033 364.278 25.7904C363.933 25.5477 363.746 25.417 363.718 25.3984C362.972 24.7544 362.598 24.0497 362.598 23.2844C362.598 22.4164 362.934 21.721 363.606 21.1984C364.213 20.7317 364.978 20.4984 365.902 20.4984C366.668 20.4984 367.372 20.6197 368.016 20.8624L367.764 22.2904ZM375.631 30.9984C375.109 31.1664 374.441 31.2504 373.629 31.2504C372.481 31.2504 371.576 30.849 370.913 30.0464C370.316 29.3277 370.017 28.4084 370.017 27.2884C370.017 26.1404 370.363 25.193 371.053 24.4464C371.753 23.709 372.635 23.3404 373.699 23.3404C374.409 23.3404 375.053 23.4384 375.631 23.6344L375.519 24.9924C374.969 24.7684 374.395 24.6564 373.797 24.6564C373.069 24.6564 372.5 24.899 372.089 25.3844C371.688 25.8604 371.487 26.495 371.487 27.2884C371.487 28.035 371.693 28.665 372.103 29.1784C372.505 29.6824 373.037 29.9344 373.699 29.9344C374.306 29.9344 374.913 29.8224 375.519 29.5984L375.631 30.9984ZM380.873 24.8664C380.751 24.8477 380.639 24.8337 380.537 24.8244C380.434 24.8057 380.331 24.7964 380.229 24.7964C379.687 24.7964 379.286 25.0624 379.025 25.5944C378.782 26.061 378.661 26.6397 378.661 27.3304V31.1244H377.163V25.3564C377.163 25.0017 377.153 24.6704 377.135 24.3624C377.125 24.045 377.111 23.751 377.093 23.4804H378.605V24.4184C379.034 23.681 379.58 23.3124 380.243 23.3124C380.448 23.3124 380.658 23.3404 380.873 23.3964V24.8664ZM383.788 31.1244H382.29V23.2844H383.788V31.1244ZM383.788 21.9404H382.29V20.1904H383.788V21.9404ZM387.397 33.1264H385.927V23.4664H387.397L387.355 24.3204C387.393 24.2737 387.439 24.2177 387.495 24.1524C387.551 24.0777 387.617 24.003 387.691 23.9284C388.102 23.5177 388.657 23.3124 389.357 23.3124C390.384 23.3124 391.173 23.6577 391.723 24.3484C392.209 24.983 392.451 25.879 392.451 27.0364C392.451 28.2124 392.195 29.1457 391.681 29.8364C391.14 30.5737 390.351 30.9424 389.315 30.9424C388.485 30.9424 387.845 30.639 387.397 30.0324V33.1264ZM389.189 24.6704C388.611 24.6704 388.163 24.913 387.845 25.3984C387.547 25.837 387.397 26.411 387.397 27.1204C387.397 27.811 387.542 28.385 387.831 28.8424C388.158 29.337 388.601 29.5844 389.161 29.5844C390.375 29.5844 390.981 28.749 390.981 27.0784C390.981 25.473 390.384 24.6704 389.189 24.6704ZM398.113 31.0684C397.759 31.2177 397.357 31.2924 396.909 31.2924C396.023 31.2924 395.449 31.0544 395.187 30.5784C394.991 30.261 394.893 29.6497 394.893 28.7444V24.7824H393.689V23.3964H394.893V21.7304L396.405 21.2404V23.3964H397.889V24.7824H396.405V29.1364C396.405 29.6777 396.653 29.9484 397.147 29.9484C397.474 29.9484 397.759 29.8877 398.001 29.7664L398.113 31.0684Z" fill="#2D2D2D"/>
<path fill-rule="evenodd" clip-rule="evenodd" d="M82.8816 112.541C84.9225 112.545 85.088 112.707 85.1649 114.79C85.3742 120.433 85.7384 126.071 85.6124 131.725C85.5686 133.716 85.6156 133.743 83.7777 134.01C78.6814 134.753 73.5478 134.757 68.4206 134.781C65.9846 134.791 63.5518 134.695 61.1179 134.945C59.4829 135.114 58.9735 134.656 59.0002 132.93C59.0931 127.016 58.3295 121.113 58.8368 115.194C59.0119 113.151 59.1817 112.917 61.1468 112.92C64.8013 112.925 79.2912 112.535 82.8816 112.541Z" fill="#B63C67"/>
<path fill-rule="evenodd" clip-rule="evenodd" d="M71.6308 118.728C71.6831 120.031 71.7451 121.333 71.7867 122.636C71.806 123.247 71.7195 123.862 72.6091 123.874C73.4666 123.886 73.912 123.607 73.9013 122.616C73.8906 121.751 73.9835 120.874 74.1213 120.019C74.1907 119.593 74.3103 118.972 74.872 119.011C75.4423 119.05 75.4434 119.66 75.4477 120.107C75.4733 122.656 75.469 125.206 75.4733 127.754C75.4744 127.888 75.468 128.026 75.4348 128.154C75.296 128.71 75.0547 129.172 74.4064 129.106C73.8618 129.051 73.6589 128.626 73.6193 128.127C73.5777 127.595 73.5766 127.055 73.6001 126.52C73.6311 125.84 73.5446 125.35 72.7105 125.348C71.9672 125.347 71.6746 125.655 71.6874 126.416C71.6949 126.95 71.6415 127.488 71.5689 128.016C71.5208 128.366 71.304 128.637 70.9409 128.658C70.4668 128.687 70.2532 128.346 70.203 127.919C70.1485 127.455 70.1304 126.98 70.1571 126.514C70.2788 124.44 70.4166 122.367 70.5597 120.296C70.5992 119.693 70.7423 119.121 71.6308 118.728Z" fill="#F9EEFC"/>
<path fill-rule="evenodd" clip-rule="evenodd" d="M77.4917 124.14C77.4981 122.666 77.3881 121.184 77.6818 119.722C77.9296 118.496 78.376 118.127 79.5123 118.253C81.0651 118.424 82.0786 119.622 82.1789 121.4C82.2793 123.196 81.7987 123.895 79.9405 124.229C79.2058 124.361 78.9495 124.611 78.9633 125.349C78.9772 126.153 78.9612 126.963 78.88 127.762C78.8341 128.217 78.6878 128.763 78.0887 128.682C77.653 128.621 77.5067 128.177 77.4992 127.765C77.4768 126.559 77.4917 125.349 77.4917 124.14Z" fill="#F9EDFB"/>
<path fill-rule="evenodd" clip-rule="evenodd" d="M66.101 118.424C66.6841 118.432 67.2309 118.56 67.7435 118.878C68.5562 119.381 69.2226 120.041 69.1671 121.079C69.1094 122.148 68.522 122.944 67.5662 123.392C67.3921 123.474 67.2106 123.589 67.029 123.595C65.9419 123.629 65.9002 124.39 65.9087 125.249C65.9184 126.185 65.8767 127.121 65.8351 128.058C65.8169 128.476 65.6791 128.888 65.1975 128.846C64.8365 128.816 64.7052 128.449 64.6827 128.101C64.6122 127.035 64.4948 125.964 64.5215 124.899C64.5599 123.361 64.5994 121.834 64.4766 120.293C64.3624 118.895 64.8483 118.43 66.101 118.424Z" fill="#F9EFFC"/>
<path fill-rule="evenodd" clip-rule="evenodd" d="M79.2346 122.926C78.8812 121.99 79.036 121.254 79.1097 120.539C79.1898 119.777 79.649 119.74 80.2054 120.066C80.8398 120.438 81.0865 121.03 80.9594 121.748C80.7906 122.699 79.9459 122.57 79.2346 122.926Z" fill="#BF5279"/>
<path fill-rule="evenodd" clip-rule="evenodd" d="M65.7785 119.756C66.8913 120.009 67.7563 120.085 67.688 121.141C67.6484 121.748 66.9393 122.296 66.4278 122.089C65.3267 121.645 66.2014 120.672 65.7785 119.756Z" fill="#C1567D"/>
<path fill-rule="evenodd" clip-rule="evenodd" d="M72.0078 61.7315C72.0078 56.8777 72.0366 53.3782 71.996 49.8788C71.9747 48.0517 72.231 46.255 72.4563 44.4615C72.9102 40.8444 76.2048 37.8177 79.9394 37.5052C81.1526 37.4032 82.3765 37.4234 83.594 37.4122C86.2211 37.3864 88.8472 37.4738 91.4733 37.1691C94.4838 36.8185 97.4858 37.3864 100.494 37.4727C105.296 37.6105 110.091 37.9678 114.89 38.1728C119.287 38.3599 120.897 40.5442 122.058 44.9432C122.4 46.2337 122.523 47.5857 122.514 48.9412C122.501 51.1625 122.538 53.3838 122.524 55.6041C122.491 61.2588 122.818 66.9 123.145 72.5391C123.208 73.6133 123.217 74.6921 123.218 75.7686C123.221 78.6799 122.274 79.892 119.127 80.6582C117.829 80.973 116.452 81.0054 115.107 81.0155C109.654 81.057 104.193 81.2138 98.7471 80.9987C92.0756 80.7366 85.4084 80.8968 78.7391 80.7713C77.4533 80.7478 76.1835 80.7276 75.0557 79.892C73.457 78.7102 72.483 77.2595 72.2865 75.1032C71.8423 70.1945 72.1883 65.2825 72.0078 61.7315Z" fill="#FC954A"/>
<path fill-rule="evenodd" clip-rule="evenodd" d="M111.758 57.2474C111.783 57.747 111.551 58.148 111.311 58.5502C109.777 61.1277 107.883 63.4163 106.049 65.7518C105.887 65.958 105.697 66.1484 105.493 66.3086C104.989 66.7018 104.402 66.8552 103.9 66.4116C103.303 65.884 103.432 65.1357 103.829 64.5846C104.521 63.6224 105.294 62.7128 106.102 61.8513C107.143 60.7424 107.967 59.4553 108.925 58.2802C109.406 57.691 109.354 57.2653 108.808 56.7668C107.116 55.2221 105.441 53.6549 103.779 52.0732C103.307 51.6251 102.805 51.1838 102.533 50.5542C102.366 50.1711 102.325 49.7668 102.657 49.4419C102.925 49.1775 103.256 49.2212 103.552 49.3657C104.014 49.5942 104.492 49.8138 104.905 50.1241C107.152 51.8111 109.265 53.6639 111.094 55.8527C111.437 56.265 111.795 56.6469 111.758 57.2474Z" fill="#FBF1FC"/>
<path fill-rule="evenodd" clip-rule="evenodd" d="M89.2776 52.1493C89.222 52.8539 88.7874 53.3804 88.3677 53.8711C87.0819 55.3732 85.7544 56.8351 84.4387 58.3104C83.5373 59.3219 83.5021 59.3578 84.5113 60.3368C85.7822 61.5713 87.1182 62.7295 88.4189 63.9292C88.9465 64.4177 89.4965 64.8859 89.8596 65.5423C90.1127 66.0016 90.118 66.443 89.7742 66.8429C89.4431 67.2293 89.0234 67.3694 88.5578 67.1453C88.2107 66.9784 87.8529 66.7992 87.5592 66.5505C85.513 64.8198 83.3974 63.1675 81.6065 61.1288C80.5097 59.8798 80.4264 58.8626 81.4719 57.7861C83.2554 55.9501 85.1094 54.1858 86.9441 52.4047C87.367 51.9936 87.822 51.5893 88.4328 51.5388C88.8365 51.5041 89.2071 51.6016 89.2776 52.1493Z" fill="#FBF1FC"/>
<path fill-rule="evenodd" clip-rule="evenodd" d="M94.2638 50.4209C94.7113 50.4444 94.9559 50.776 95.1225 51.1356C95.5689 52.1012 96.0366 53.0634 96.3869 54.0705C97.6343 57.6696 98.4683 61.4167 99.8577 64.9677C100.155 65.7249 100.25 66.481 99.4017 66.8485C98.5677 67.2092 98.0668 66.6054 97.7581 65.884C97.3117 64.8433 96.8739 63.7926 96.5193 62.715C95.4311 59.4104 94.5383 56.0454 93.8046 52.6321C93.6914 52.1012 93.5889 51.5825 93.653 51.0404C93.6978 50.6651 93.8708 50.4209 94.2638 50.4209Z" fill="#FBF0FC"/>
<path fill-rule="evenodd" clip-rule="evenodd" d="M169.066 10.1647C160.282 10.419 154.058 10.0191 147.835 10.3271C147.58 10.3395 147.32 10.3384 147.066 10.3047C146.339 10.2106 145.901 9.7805 145.808 9.01205C145.718 8.25032 146.019 7.69583 146.699 7.4113C147.051 7.26343 147.432 7.10885 147.803 7.09653C149.918 7.02707 152.015 6.60476 154.144 6.82544C154.907 6.90385 155.682 6.89825 156.452 6.88929C166.011 6.77839 175.569 6.90049 185.126 7.01139C185.639 7.01699 186.161 6.99011 186.662 7.07972C187.358 7.20407 187.813 7.67118 187.896 8.42955C187.985 9.22824 187.525 9.6696 186.887 9.95861C186.275 10.2353 185.624 10.1614 184.987 10.1614C178.827 10.167 172.667 10.1647 169.066 10.1647Z" fill="#B63D68"/>
<path fill-rule="evenodd" clip-rule="evenodd" d="M180.102 15.592C182.26 15.3713 184.412 15.8888 186.588 15.9493C187.76 15.9818 188.38 16.6998 188.328 17.652C188.28 18.519 187.671 19.05 186.597 19.1486C186.405 19.1665 186.211 19.1609 186.02 19.1542C179.67 18.8977 173.337 19.4342 167.004 19.6975C162.262 19.8935 157.524 19.9058 152.785 20.0223C151.852 20.0458 151.015 19.8924 150.296 19.218C149.537 18.5067 149.586 17.7327 150.576 17.4212C151.666 17.0785 152.833 16.8376 153.967 16.8365C160.508 16.8253 167.01 15.9628 173.546 15.9258C175.728 15.9146 177.884 15.4531 180.102 15.592Z" fill="#FC954B"/>
<path fill-rule="evenodd" clip-rule="evenodd" d="M175.461 28.79C170.782 28.8113 166.111 28.9323 161.442 29.2717C160.55 29.3366 159.644 29.3344 158.755 29.2336C158.065 29.1552 157.604 28.6365 157.529 27.8838C157.452 27.1153 157.867 26.6347 158.505 26.3211C158.989 26.0847 159.502 26.1195 160.012 26.0814C168.201 25.472 176.399 25.5762 184.597 25.733C185.74 25.7543 186.764 25.9145 187.533 26.8845C188.063 27.5522 187.942 28.128 187.15 28.4394C186.426 28.7239 185.652 28.79 184.879 28.79C181.739 28.79 178.601 28.79 175.461 28.79Z" fill="#1C5468"/>
<path fill-rule="evenodd" clip-rule="evenodd" d="M86.8843 170.382C86.9131 171.592 86.9655 172.802 86.9676 174.01C86.9751 180.805 86.9633 187.6 86.9719 194.395C86.9772 198.02 86.4155 201.617 86.566 205.255C86.6301 206.815 85.0432 208.452 83.4039 208.425C80.7682 208.38 78.1837 209.015 75.5502 208.883C70.6152 208.635 65.6973 209.225 60.7783 209.412C57.1975 209.549 53.6134 209.529 50.0369 209.706C48.3516 209.789 46.722 209.449 45.0805 209.213C43.17 208.94 42.1768 207.739 41.9183 205.719C41.9002 205.587 41.9055 205.451 41.897 205.317C41.4495 197.599 41.4655 189.871 41.5392 182.145C41.5648 179.355 41.7539 176.565 41.8735 173.775C41.9108 172.896 41.8404 172.03 41.6075 171.182C42.0123 170.786 42.5249 170.66 43.0354 170.731C48.5973 171.525 54.1421 170.409 59.6986 170.571C64.106 170.7 68.5124 170.494 72.923 170.916C77.5782 171.361 82.227 170.478 86.8843 170.382Z" fill="#CCA8FF"/>
<path fill-rule="evenodd" clip-rule="evenodd" d="M86.8843 170.382C86.4465 171.023 85.8858 171.324 85.1009 171.337C80.2449 171.419 75.3964 171.681 70.5287 171.476C64.7159 171.229 58.8913 171.348 53.0731 171.5C49.7486 171.587 46.424 171.647 43.0995 171.463C42.5858 171.435 42.0786 171.437 41.6076 171.183C41.6012 169.774 41.4869 168.353 41.6076 166.956C41.8756 163.856 43.4114 162.143 46.3439 161.479C49.5563 160.752 52.8243 160.584 56.0868 160.653C63.1321 160.802 70.1688 160.374 77.2109 160.402C78.8203 160.408 80.4083 160.64 81.9867 160.865C84.6662 161.246 86.5928 163.382 86.9901 166.216C87.1855 167.605 87.461 169.009 86.8843 170.382Z" fill="#1B5467"/>
<path fill-rule="evenodd" clip-rule="evenodd" d="M66.9564 199.397C67.0984 200.872 66.5473 202.026 65.4805 202.913C64.4648 203.759 63.5208 203.712 62.5607 202.833C60.4931 200.941 60.8616 196.774 63.2228 195.321C64.1434 194.755 65.8852 195.458 66.4523 196.697C66.841 197.541 67.0738 198.45 66.9564 199.397Z" fill="#F3E6FE"/>
<path fill-rule="evenodd" clip-rule="evenodd" d="M70.8138 182.617C70.9024 183.772 70.7497 185.073 69.6508 186.053C68.8883 186.733 68.0457 187.115 67.0194 187.073C65.5755 187.013 64.7222 186.277 64.6603 184.761C64.5866 182.948 64.593 181.128 64.6411 179.314C64.6795 177.868 65.1782 177.406 66.5281 177.356C69.0592 177.262 70.8063 179.312 70.8138 182.617Z" fill="#FAF0FF"/>
<path fill-rule="evenodd" clip-rule="evenodd" d="M77.0495 187.454C73.8468 187.485 73.8873 187.485 73.8478 184.198C73.8318 182.772 74.0764 181.398 74.2857 180.01C74.4502 178.91 75.0354 178.249 76.1215 177.979C77.3966 177.662 78.6643 177.763 79.9383 177.807C80.2075 177.814 80.4445 177.996 80.5033 178.271C80.562 178.553 80.3933 178.774 80.1498 178.91C79.6938 179.163 79.2207 179.325 78.6963 179.385C78.0011 179.466 77.3165 179.653 76.6234 179.755C75.6964 179.89 75.7968 180.608 75.7915 181.279C75.7862 181.985 76.2069 182.181 76.7868 182.218C77.1681 182.241 77.575 182.236 77.921 182.378C78.3482 182.553 79.1224 182.4 79.0637 183.158C79.0178 183.746 78.3706 183.88 77.9007 184.08C77.3197 184.325 76.7719 184.057 76.2112 183.943C75.8652 183.871 75.5736 184.002 75.5074 184.417C75.4401 184.848 75.5096 185.254 75.9827 185.355C76.3543 185.436 76.7452 185.418 77.1275 185.439C77.7031 185.471 78.2958 185.415 78.848 185.548C79.3723 185.675 80.0793 185.804 79.949 186.653C79.8508 187.302 79.3157 187.435 78.7764 187.45C78.2029 187.467 77.6273 187.454 77.0495 187.454Z" fill="#F9F0FF"/>
<path fill-rule="evenodd" clip-rule="evenodd" d="M62.3161 182.086C62.2948 184.102 61.3571 185.727 59.9998 186.328C58.9265 186.803 58.0187 186.596 57.1473 185.885C54.9494 184.098 54.7988 180.46 56.8376 178.441C57.961 177.328 60.0286 177.457 61.1211 178.795C61.8783 179.719 62.4026 180.795 62.3161 182.086Z" fill="#F9F0FE"/>
<path fill-rule="evenodd" clip-rule="evenodd" d="M77.7053 199.104C77.827 200.188 77.4767 201.052 77.0111 201.867C76.1258 203.417 74.7235 203.561 73.5328 202.245C72.216 200.792 71.9212 198.09 72.9454 196.427C73.4495 195.609 74.1191 195.054 75.1614 195.111C76.2027 195.167 76.8317 195.796 77.2236 196.666C77.5728 197.446 77.874 198.287 77.7053 199.104Z" fill="#F4E7FE"/>
<path fill-rule="evenodd" clip-rule="evenodd" d="M46.5126 199.202C46.3514 197.614 46.5938 196.212 47.8401 195.172C48.4082 194.696 48.9753 194.596 49.6012 195.015C51.8567 196.526 51.7584 200.954 50.3882 202.198C49.7507 202.777 49.1046 203.354 48.169 203.033C47.1342 202.679 46.6429 201.851 46.5233 200.773C46.4656 200.242 46.5126 199.698 46.5126 199.202Z" fill="#F3E6FE"/>
<path fill-rule="evenodd" clip-rule="evenodd" d="M51.6014 178.164C52.0948 178.19 52.5433 178.129 52.7206 178.58C52.9289 179.115 52.459 179.253 52.1375 179.422C51.5021 179.758 50.9147 180.149 50.4534 180.729C49.5168 181.904 49.411 182.853 50.0977 184.04C50.8271 185.302 51.4914 185.582 53.0068 185.257C53.2557 185.204 53.497 185.104 53.749 185.077C54.0011 185.049 54.2948 185.072 54.3717 185.385C54.4122 185.549 54.3482 185.779 54.2606 185.936C53.5632 187.184 52.2443 187.745 50.9799 187.354C49.4046 186.868 47.6991 184.426 47.7493 182.73C47.7984 181.078 49.473 178.751 50.9596 178.288C51.2009 178.211 51.4583 178.19 51.6014 178.164Z" fill="#F9F0FF"/>
<path fill-rule="evenodd" clip-rule="evenodd" d="M82.3231 198.201C82.4704 199.303 82.1639 200.41 81.9087 201.519C81.7923 202.022 81.4751 202.387 80.9508 202.304C80.483 202.23 80.4317 201.778 80.4072 201.362C80.2929 199.431 80.0676 197.502 80.4072 195.568C80.4915 195.088 80.5599 194.579 81.096 194.495C81.6599 194.407 81.8243 194.897 81.9867 195.355C82.3081 196.256 82.385 197.187 82.3231 198.201Z" fill="#F9F0FF"/>
<path fill-rule="evenodd" clip-rule="evenodd" d="M57.7496 199.113C57.7442 197.911 57.5306 196.685 58.0208 195.523C58.1842 195.133 58.3337 194.764 58.8175 194.836C59.2586 194.901 59.4957 195.248 59.5416 195.662C59.6067 196.262 59.6334 196.876 59.5897 197.476C59.4829 198.947 59.3536 200.418 59.1753 201.881C59.1219 202.316 59.0236 202.929 58.4865 202.956C57.9258 202.985 57.7998 202.37 57.7699 201.938C57.7037 201 57.7496 200.055 57.7496 199.113Z" fill="#F8EEFF"/>
<path fill-rule="evenodd" clip-rule="evenodd" d="M54.975 198.812C54.975 199.745 54.9964 200.68 54.9654 201.612C54.9494 202.082 54.8298 202.628 54.2798 202.637C53.7277 202.647 53.5782 202.053 53.5515 201.631C53.4628 200.236 53.4543 198.836 53.4404 197.437C53.4351 196.907 53.4404 196.36 53.5568 195.852C53.6615 195.398 53.9626 194.947 54.4859 195.047C54.9195 195.13 54.9932 195.595 54.9964 196.01C55.0028 196.943 54.9996 197.877 54.9996 198.811C54.9911 198.812 54.9836 198.812 54.975 198.812Z" fill="#F9F0FF"/>
<path fill-rule="evenodd" clip-rule="evenodd" d="M69.2557 197.969C69.2557 197.038 69.2428 196.106 69.2621 195.175C69.2685 194.827 69.4159 194.503 69.7758 194.435C70.2104 194.351 70.4945 194.619 70.6536 195.017C70.7262 195.196 70.77 195.401 70.77 195.596C70.7764 197.326 70.7914 199.058 70.7561 200.786C70.7444 201.324 70.5756 201.934 69.9028 201.851C69.386 201.786 69.2781 201.244 69.2685 200.764C69.2503 199.833 69.2642 198.901 69.2642 197.968C69.261 197.969 69.2578 197.969 69.2557 197.969Z" fill="#F9EFFF"/>
<path fill-rule="evenodd" clip-rule="evenodd" d="M74.856 164.811C75.8289 164.819 76.5903 165.611 76.5337 166.558C76.4803 167.465 75.4498 168.479 74.6232 168.437C73.803 168.397 73.1377 167.636 73.1088 166.708C73.0736 165.59 73.8009 164.802 74.856 164.811Z" fill="#479639"/>
<path fill-rule="evenodd" clip-rule="evenodd" d="M70.0748 166.44C70.0972 167.523 69.4639 168.362 68.57 168.432C67.6409 168.504 66.8976 167.724 66.8859 166.662C66.8741 165.61 67.5384 164.869 68.5284 164.828C69.4959 164.789 70.0523 165.368 70.0748 166.44Z" fill="#B23D68"/>
<path fill-rule="evenodd" clip-rule="evenodd" d="M80.8792 168.036C80.0195 168.004 79.4578 167.261 79.5069 166.224C79.5539 165.234 80.2203 164.494 81.0373 164.526C81.8404 164.557 82.6072 165.403 82.604 166.254C82.6029 167.194 81.7528 168.07 80.8792 168.036Z" fill="#F4C565"/>
<path fill-rule="evenodd" clip-rule="evenodd" d="M66.2473 182.281C66.2473 181.612 66.164 180.929 66.2675 180.277C66.3968 179.46 67.0066 179.245 67.7093 179.662C69.182 180.536 69.6391 182.765 68.6277 184.23C68.176 184.885 67.532 185.167 66.7759 184.98C65.9728 184.781 66.2302 184.047 66.1875 183.487C66.1576 183.088 66.1821 182.684 66.1821 182.281C66.2035 182.281 66.2259 182.281 66.2473 182.281Z" fill="#CEAAFF"/>
<path fill-rule="evenodd" clip-rule="evenodd" d="M60.3778 182.035C60.3575 183.274 59.6794 184.236 58.8303 184.231C57.9108 184.227 56.9614 182.971 56.9689 181.773C56.9764 180.639 57.7378 179.752 58.6979 179.76C59.6783 179.768 60.3981 180.743 60.3778 182.035Z" fill="#CDAAFF"/>
<path fill-rule="evenodd" clip-rule="evenodd" d="M47.6308 199.079C47.5443 198.229 47.6746 197.479 48.341 196.923C48.6453 196.668 48.9486 196.615 49.2829 196.839C50.4897 197.647 50.4373 200.017 49.7047 200.682C49.364 200.991 49.017 201.3 48.5172 201.129C47.9629 200.94 47.7002 200.497 47.6372 199.92C47.6062 199.635 47.6308 199.344 47.6308 199.079Z" fill="#CCA8FF"/>
<path fill-rule="evenodd" clip-rule="evenodd" d="M62.7294 199.079C62.6429 198.229 62.7732 197.479 63.4396 196.923C63.744 196.668 64.0473 196.615 64.3815 196.839C65.5883 197.647 65.536 200.017 64.8034 200.682C64.4627 200.991 64.1156 201.3 63.6158 201.129C63.0616 200.94 62.7988 200.497 62.7358 199.92C62.7038 199.635 62.7294 199.344 62.7294 199.079Z" fill="#CCA8FF"/>
<path fill-rule="evenodd" clip-rule="evenodd" d="M73.834 199.385C73.7475 198.535 73.8778 197.785 74.5442 197.228C74.8485 196.974 75.1518 196.92 75.4861 197.144C76.6929 197.953 76.6405 200.322 75.9079 200.988C75.5672 201.297 75.2202 201.606 74.7204 201.435C74.1661 201.245 73.9034 200.803 73.8404 200.226C73.8094 199.941 73.834 199.65 73.834 199.385Z" fill="#CCA8FF"/>
<path fill-rule="evenodd" clip-rule="evenodd" d="M285.834 20.9386C285.664 28.1123 285.544 33.3593 285.418 38.604C285.332 42.192 283.938 43.916 280.584 44.466C279.576 44.6306 278.539 44.6418 277.516 44.6598C271.418 44.7662 265.324 44.4794 259.251 44.0358C253.613 43.6236 247.971 43.9664 242.341 43.5945C241.253 43.5228 240.153 43.4735 239.092 43.245C236.503 42.6916 235.171 41.1032 235.152 38.3262C235.124 34.1569 235.195 29.9853 235.327 25.8171C235.408 23.2585 235.433 20.7045 235.366 18.1505C235.266 14.3127 235.305 10.485 235.643 6.65847C235.987 2.74901 237.51 1.02168 241.255 0.513114C244.121 0.123289 247.015 0.0695163 249.895 0.0213481C259.202 -0.133238 268.483 0.581446 277.765 1.20539C279.237 1.30397 280.715 1.32749 282.185 1.44511C284.547 1.63218 285.291 2.32334 285.917 4.73847C286.207 5.85753 286.22 6.99788 286.247 8.1416C286.35 13.0603 285.957 17.9589 285.834 20.9386Z" fill="#1B5467"/>
<path fill-rule="evenodd" clip-rule="evenodd" d="M265.108 23.3101C265.663 21.2859 265.939 19.2707 266.82 17.4492C267.077 16.9183 267.217 16.2316 267.988 16.3481C268.617 16.4433 268.694 17.0292 268.827 17.5556C269.544 20.4177 270.276 23.2742 270.989 26.1374C271.135 26.7222 271.332 27.4212 270.532 27.6273C269.819 27.8121 269.474 27.2128 269.306 26.618C268.961 25.3947 268.703 24.1435 268.381 22.9113C268.149 22.0308 268.104 21.0775 267.426 20.0346C266.941 22.1652 266.519 24.027 266.088 25.8865C265.983 26.3424 265.898 26.8174 265.707 27.2352C265.438 27.8233 264.795 27.8726 264.519 27.2968C264.18 26.5799 263.943 25.8002 263.731 25.0273C263.308 23.4915 262.934 21.9412 262.308 20.4211C262.046 22.1126 261.783 23.8052 261.522 25.4978C261.47 25.8305 261.484 26.1889 261.366 26.4914C261.195 26.935 261.281 27.7337 260.566 27.6116C260.013 27.5164 260.153 26.8577 260.184 26.4264C260.388 23.5408 260.644 20.6608 261.284 17.8357C261.4 17.3227 261.447 16.6976 262.091 16.6069C262.831 16.5027 263.041 17.1401 263.287 17.6912C263.864 18.9805 264.162 20.3584 264.465 21.7362C264.573 22.2392 264.453 22.8373 265.108 23.3101Z" fill="#F8F0FD"/>
<path fill-rule="evenodd" clip-rule="evenodd" d="M246.003 15.173C246.851 16.9866 246.128 19.0523 246.508 20.9319C246.644 21.026 246.742 21.1571 246.84 21.156C249.428 21.1067 249.131 21.5693 249.306 18.7084C249.361 17.838 249.432 16.9676 249.517 16.0994C249.55 15.7432 249.732 15.4497 250.104 15.4296C250.459 15.4094 250.749 15.6469 250.818 15.9818C250.923 16.4993 250.984 17.0449 250.961 17.5725C250.839 20.3225 250.698 23.0726 250.53 25.8204C250.488 26.525 250.561 27.5343 249.584 27.485C248.594 27.4346 248.79 26.4769 248.838 25.7521C248.869 25.2839 248.973 24.8134 248.951 24.3485C248.927 23.8601 249.285 23.1869 248.606 22.9382C248.001 22.7153 247.325 22.7253 246.709 22.9124C246.378 23.0132 246.41 23.4557 246.397 23.7918C246.356 24.8649 246.346 25.9403 246.25 27.0078C246.215 27.3853 246.014 27.8412 245.539 27.8155C245.09 27.7931 244.898 27.4044 244.893 26.9765C244.824 23.2149 244.839 19.4544 245.308 15.7141C245.342 15.4352 245.506 15.2212 246.003 15.173Z" fill="#F4EDFA"/>
<path fill-rule="evenodd" clip-rule="evenodd" d="M275.231 21.4774C275.231 22.685 275.263 23.8948 275.22 25.1001C275.186 26.0131 275.454 26.4891 276.409 26.4208C277.109 26.3704 277.819 26.4443 278.464 26.8017C278.77 26.9731 278.947 27.2408 278.908 27.6082C278.869 27.9812 278.621 28.2635 278.299 28.2926C277.03 28.408 275.748 28.6399 274.482 28.3789C273.545 28.1874 273.43 27.3674 273.408 26.5015C273.352 24.2824 273.526 22.0756 273.69 19.8688C273.743 19.1329 273.739 18.3902 273.837 17.6609C273.911 17.102 273.83 16.2641 274.602 16.2629C275.416 16.2629 275.278 17.0807 275.289 17.6497C275.313 18.9245 275.296 20.2004 275.296 21.4752C275.275 21.4774 275.253 21.4774 275.231 21.4774Z" fill="#F3EDFA"/>
<path fill-rule="evenodd" clip-rule="evenodd" d="M254.707 22.4061C254.784 20.9868 254.829 19.7826 254.919 18.5817C254.982 17.7214 254.838 17.1031 253.823 17.2218C253.698 17.2353 253.568 17.2129 253.442 17.1961C253.028 17.1412 252.671 16.9575 252.656 16.4847C252.634 15.9202 253.026 15.6054 253.502 15.592C255.159 15.5449 256.818 15.5348 258.476 15.564C258.955 15.5729 259.356 15.9101 259.315 16.4612C259.285 16.8869 258.912 17.0594 258.519 17.1972C257.947 17.3955 257.121 16.9541 256.823 17.7606C256.624 18.3017 256.671 18.9447 256.616 19.5406C256.42 21.6051 256.234 23.6708 256.03 25.7341C255.984 26.1968 255.913 26.6594 255.802 27.1075C255.739 27.3595 255.569 27.5769 255.262 27.5657C254.912 27.5522 254.859 27.2542 254.846 27.0067C254.783 25.8719 254.747 24.7361 254.71 23.5991C254.696 23.1286 254.707 22.6603 254.707 22.4061Z" fill="#F5EFFB"/>
<path fill-rule="evenodd" clip-rule="evenodd" d="M313.907 73.3399C331.242 73.3399 348.576 73.3377 365.909 73.3433C368.044 73.3433 368.554 73.8541 368.48 76.0709C367.732 98.5531 368.14 121.045 367.921 143.533C367.915 144.071 367.955 144.626 367.837 145.141C367.64 145.999 366.895 146.285 366.201 145.769C365.682 145.383 365.222 144.895 364.784 144.407C362.057 141.367 359.297 138.357 356.651 135.239C355.702 134.12 354.73 133.758 353.318 133.804C337.597 134.301 321.872 134.571 306.143 134.809C292.021 135.023 277.901 135.283 263.78 135.515C260.973 135.561 260.578 135.215 260.35 132.26C260.174 129.979 260.068 127.688 260.035 125.402C259.794 108.973 259.58 92.5433 259.358 76.1146C259.352 75.6441 259.341 75.168 259.399 74.7032C259.513 73.7723 260.003 73.2794 260.946 73.2805C262.294 73.2839 263.642 73.2346 264.989 73.2055C281.295 72.8605 297.601 73.0397 313.907 73.3399Z" fill="#263A76"/>
<path fill-rule="evenodd" clip-rule="evenodd" d="M295.638 80.3265C288.331 80.387 281.026 80.6592 273.721 80.3075C273.336 80.2896 272.952 80.2772 272.57 80.2436C271.883 80.1831 271.236 79.9613 271.217 79.1223C271.196 78.2654 271.904 78.0626 272.539 77.9304C273.036 77.8263 273.556 77.8128 274.068 77.8005C288.361 77.4846 302.654 77.2986 316.948 77.3401C317.59 77.3423 318.235 77.3311 318.867 77.4263C319.48 77.5193 319.943 77.917 320.001 78.6093C320.07 79.4236 319.572 79.8751 318.896 80.0207C318.276 80.1551 317.624 80.154 316.986 80.1596C310.576 80.2212 304.165 80.2716 297.754 80.3254C297.049 80.3299 296.343 80.3265 295.638 80.3265Z" fill="#CBA7FE"/>
<path fill-rule="evenodd" clip-rule="evenodd" d="M293.281 129.172C285.266 129.391 277.254 129.61 269.241 129.831C268.274 129.857 267.316 129.805 266.394 129.469C266.08 129.357 265.817 129.167 265.857 128.756C265.889 128.441 266.137 128.33 266.368 128.218C267.086 127.874 267.859 127.816 268.624 127.77C272.274 127.55 275.921 127.288 279.572 127.163C290.341 126.794 301.112 126.485 311.881 126.147C313.996 126.08 316.111 125.98 318.226 125.899C318.609 125.886 318.995 125.897 319.38 125.896C320.087 125.892 320.717 126.093 320.751 126.948C320.785 127.846 320.06 127.969 319.421 128.085C319.045 128.154 318.655 128.169 318.273 128.183C309.941 128.498 301.61 128.808 293.279 129.12C293.281 129.138 293.281 129.154 293.281 129.172Z" fill="#FA944A"/>
<path fill-rule="evenodd" clip-rule="evenodd" d="M287.211 87.4029C280.726 87.4029 274.239 87.4062 267.753 87.3961C267.115 87.3939 266.467 87.3547 265.84 87.2337C265.289 87.1284 264.612 87.0175 264.637 86.2009C264.66 85.5209 265.246 85.3944 265.745 85.2846C266.244 85.1737 266.757 85.0997 267.267 85.0829C280.619 84.6528 293.975 84.6091 307.33 84.5475C307.396 84.5464 307.46 84.5464 307.525 84.5486C308.816 84.6013 309.333 84.9541 309.372 85.8077C309.413 86.6758 308.885 87.1161 307.628 87.1777C306.153 87.2483 304.676 87.3132 303.199 87.3177C297.87 87.3356 292.541 87.3244 287.211 87.3244C287.211 87.3513 287.211 87.376 287.211 87.4029Z" fill="#FA944A"/>
<path fill-rule="evenodd" clip-rule="evenodd" d="M287.349 116.45C280.719 116.608 274.634 116.756 268.55 116.892C267.782 116.909 267.009 116.937 266.257 116.708C265.877 116.593 265.489 116.446 265.443 115.972C265.389 115.397 265.774 115.08 266.238 115.017C267.571 114.833 268.911 114.646 270.25 114.592C275.308 114.388 280.37 114.246 285.428 114.062C291.959 113.825 298.489 113.567 305.021 113.324C305.597 113.302 306.177 113.29 306.75 113.328C307.469 113.376 308.001 113.752 308.023 114.554C308.046 115.382 307.486 115.739 306.781 115.794C305.377 115.905 303.968 115.996 302.562 116.04C297.31 116.207 292.051 116.139 287.349 116.45Z" fill="#FA944A"/>
<path fill-rule="evenodd" clip-rule="evenodd" d="M280.015 123.038C275.908 123.169 271.809 123.481 267.699 123.415C267.062 123.405 266.408 123.487 265.827 123.099C265.163 122.656 265.151 121.903 265.839 121.5C266.466 121.132 267.179 121.066 267.891 121.026C272.311 120.784 276.731 120.494 281.155 120.298C286.669 120.053 292.188 119.879 297.704 119.685C298.278 119.664 298.858 119.673 299.429 119.742C299.919 119.8 300.236 120.151 300.316 120.667C300.414 121.284 300.111 121.683 299.603 121.953C299.184 122.176 298.734 122.158 298.287 122.178C292.194 122.466 286.105 122.753 280.015 123.038Z" fill="#FDCA65"/>
<path fill-rule="evenodd" clip-rule="evenodd" d="M275.315 109.717C272.298 109.717 269.282 109.734 266.266 109.706C265.474 109.699 264.478 109.934 264.239 108.719C264.098 107.999 264.925 107.45 266.253 107.308C266.507 107.282 266.765 107.286 267.023 107.279C274.073 107.099 281.117 106.743 288.174 106.783C290.475 106.797 292.771 106.401 295.083 106.48C296.755 106.537 297.411 106.932 297.352 107.948C297.298 108.869 296.71 109.234 295.12 109.267C293.646 109.296 292.169 109.283 290.693 109.298C285.564 109.347 280.449 109.933 275.315 109.717Z" fill="#489738"/>
<path fill-rule="evenodd" clip-rule="evenodd" d="M298.726 102.7C293.977 102.763 289.227 102.837 284.478 102.879C283.662 102.887 282.711 102.991 282.405 101.885C282.225 101.235 282.959 100.677 284.456 100.559C287.461 100.324 290.477 100.162 293.491 100.05C300.035 99.81 306.58 99.6206 313.125 99.41C314.687 99.3596 315.346 99.6901 315.431 100.575C315.525 101.536 314.821 101.985 313.157 102.048C308.345 102.228 303.535 102.414 298.724 102.598C298.724 102.633 298.725 102.666 298.726 102.7Z" fill="#CAA7FE"/>
<path fill-rule="evenodd" clip-rule="evenodd" d="M269.484 95.495C267.751 95.4558 266.401 95.6003 265.082 95.187C264.625 95.0436 264.213 94.9069 264.214 94.302C264.217 93.7285 264.607 93.4619 265.043 93.3297C265.467 93.2009 265.92 93.1471 266.363 93.1292C271.927 92.8973 277.492 92.7528 283.058 92.6184C287.472 92.512 291.884 92.3003 296.298 92.3036C297.918 92.3059 298.512 92.6778 298.45 93.5918C298.391 94.4208 297.867 94.6515 296.338 94.7445C288.983 95.1948 281.618 95.094 274.256 95.2004C272.537 95.2262 270.829 95.6575 269.484 95.495Z" fill="#489739"/>
<path fill-rule="evenodd" clip-rule="evenodd" d="M337.409 121.328C331.147 121.806 326.141 121.714 321.141 121.769C320.373 121.778 319.6 121.774 318.837 121.681C318.343 121.621 317.737 121.477 317.755 120.779C317.768 120.2 318.293 120.091 318.74 120.009C319.244 119.918 319.755 119.862 320.262 119.793C324.286 119.242 328.333 119.438 332.368 119.411C338.845 119.367 345.324 119.39 351.796 119.059C352.494 119.023 353.213 118.958 353.894 119.217C354.347 119.39 354.67 119.7 354.665 120.251C354.657 120.819 354.277 121.098 353.835 121.226C353.474 121.331 353.076 121.322 352.692 121.323C347.174 121.329 341.659 121.328 337.409 121.328Z" fill="#F8944B"/>
<path fill-rule="evenodd" clip-rule="evenodd" d="M334.511 102.842C332.84 102.842 331.171 102.847 329.503 102.84C329.119 102.839 328.729 102.83 328.351 102.772C327.863 102.698 327.504 102.399 327.458 101.867C327.41 101.308 327.772 100.978 328.241 100.879C329.116 100.69 330.01 100.432 330.89 100.45C334.362 100.518 337.811 100.105 341.261 99.8817C345.493 99.6073 349.722 99.6566 353.953 99.5546C354.464 99.5423 354.982 99.5356 355.492 99.5781C356.14 99.6319 356.595 99.9836 356.627 100.705C356.662 101.531 356.189 101.938 355.453 102.009C354.051 102.143 352.648 102.271 351.242 102.354C350.281 102.409 349.315 102.417 348.353 102.386C343.731 102.239 339.135 102.989 334.511 102.842Z" fill="#489738"/>
<path fill-rule="evenodd" clip-rule="evenodd" d="M337.043 87.1115C333.587 87.1115 330.126 87.125 326.669 87.1048C325.149 87.0959 324.584 86.7519 324.567 85.9376C324.55 85.1355 325.161 84.73 326.628 84.655C333.73 84.2931 340.838 84.2069 347.947 84.2102C348.076 84.2102 348.203 84.2035 348.331 84.2125C349.445 84.2887 350.047 84.7401 349.933 85.4895C349.795 86.3901 349.135 86.6164 348.372 86.6422C344.853 86.762 341.331 86.8841 337.811 87.0029C337.555 87.0118 337.299 87.0051 337.042 87.0051C337.043 87.0398 337.043 87.0757 337.043 87.1115Z" fill="#FDCA65"/>
<path fill-rule="evenodd" clip-rule="evenodd" d="M332.723 92.0112C335.535 91.8959 338.348 91.7838 341.162 91.6606C341.741 91.636 342.315 91.6337 342.86 91.8779C343.392 92.1154 343.648 92.5456 343.6 93.1494C343.558 93.6882 343.203 93.9861 342.764 94.1396C342.47 94.2427 342.138 94.2505 341.82 94.264C335.557 94.5496 329.298 94.9506 323.022 94.6874C322.384 94.6605 321.742 94.7008 321.13 94.4454C320.753 94.2886 320.425 94.0937 320.401 93.6243C320.376 93.1482 320.686 92.894 321.064 92.7551C321.792 92.4862 322.546 92.3563 323.32 92.3294C326.454 92.2174 329.587 92.0941 332.721 91.9743C332.722 91.9866 332.722 92 332.723 92.0112Z" fill="#F9944A"/>
<path fill-rule="evenodd" clip-rule="evenodd" d="M320.492 115.45C318.054 115.45 315.613 115.476 313.173 115.433C312.448 115.42 311.362 115.591 311.302 114.528C311.233 113.308 312.391 113.404 313.17 113.337C319.955 112.768 326.757 112.6 333.561 112.506C333.755 112.503 333.948 112.506 334.138 112.529C334.793 112.607 335.24 112.969 335.257 113.678C335.275 114.415 334.749 114.717 334.149 114.854C333.839 114.925 333.51 114.921 333.191 114.929C328.955 115.033 324.731 115.451 320.492 115.45Z" fill="#C9A7FD"/>
<path fill-rule="evenodd" clip-rule="evenodd" d="M316.853 108.934C315.125 108.934 313.397 108.942 311.669 108.928C311.224 108.925 310.773 108.88 310.335 108.797C309.933 108.723 309.618 108.474 309.599 108.003C309.578 107.54 309.851 107.248 310.247 107.128C310.672 106.998 311.113 106.888 311.554 106.849C317.167 106.36 322.795 106.201 328.424 106.099C328.488 106.098 328.551 106.096 328.617 106.099C329.93 106.139 330.568 106.515 330.476 107.28C330.346 108.351 329.523 108.426 328.737 108.417C324.766 108.372 320.828 109.141 316.853 108.934Z" fill="#FDCA65"/>
<path fill-rule="evenodd" clip-rule="evenodd" d="M344.353 106.597C346.785 106.597 349.22 106.596 351.652 106.598C352.1 106.599 352.55 106.597 352.993 106.649C353.537 106.713 353.998 106.94 354.042 107.608C354.088 108.28 353.643 108.569 353.128 108.713C352.763 108.815 352.368 108.824 351.986 108.824C347.503 108.824 343.022 108.836 338.54 108.797C337.52 108.788 336.502 108.605 335.487 108.478C334.904 108.405 334.202 108.28 334.206 107.537C334.211 106.747 335 106.782 335.528 106.673C336.087 106.556 336.67 106.538 337.245 106.534C339.613 106.521 341.982 106.529 344.353 106.529C344.353 106.552 344.353 106.575 344.353 106.597Z" fill="#C4A4F9"/>
<path fill-rule="evenodd" clip-rule="evenodd" d="M348.529 115.36C345.794 115.151 342.711 115.599 339.665 114.996C339.416 114.947 339.153 114.946 338.907 114.879C338.582 114.789 338.325 114.583 338.3 114.201C338.275 113.805 338.545 113.596 338.85 113.475C339.085 113.382 339.346 113.358 339.598 113.331C344.891 112.765 350.201 113.023 355.507 112.952C355.634 112.951 355.762 112.951 355.889 112.964C357.064 113.1 357.835 113.629 357.729 114.331C357.545 115.569 356.573 115.353 355.766 115.356C353.462 115.367 351.159 115.36 348.529 115.36Z" fill="#489639"/>
<path fill-rule="evenodd" clip-rule="evenodd" d="M309.32 92.3372C311.176 92.3372 313.031 92.3293 314.885 92.3417C315.329 92.3439 315.79 92.3428 316.211 92.4626C316.658 92.5915 316.972 92.9522 317.028 93.4742C317.093 94.0768 316.846 94.5115 316.337 94.7837C315.929 95.0032 315.486 95.0536 315.034 95.0648C310.94 95.1713 306.845 95.2385 302.758 94.8643C302.016 94.796 300.967 94.9035 300.93 93.8595C300.885 92.6318 302.024 92.7371 302.801 92.7169C304.973 92.6587 307.147 92.6968 309.319 92.6968C309.319 92.578 309.32 92.457 309.32 92.3372Z" fill="#F8C865"/>
<path fill-rule="evenodd" clip-rule="evenodd" d="M349.317 127.779C346.822 127.779 344.327 127.796 341.834 127.769C341.135 127.761 340.438 127.637 339.741 127.538C339.478 127.5 339.278 127.313 339.218 127.023C339.141 126.638 339.346 126.396 339.636 126.213C340.09 125.926 340.597 125.895 341.113 125.848C346.605 125.354 352.113 125.551 357.614 125.42C357.867 125.414 358.128 125.417 358.378 125.459C358.879 125.541 359.206 125.879 359.239 126.391C359.283 127.022 358.902 127.377 358.336 127.485C358.024 127.545 357.698 127.546 357.38 127.547C354.693 127.55 352.005 127.548 349.317 127.548C349.316 127.626 349.316 127.703 349.317 127.779Z" fill="#FCCA65"/>
<path fill-rule="evenodd" clip-rule="evenodd" d="M350.791 80.9773C348.932 80.9773 347.071 80.9538 345.21 80.9874C344.296 81.0053 343.441 80.7096 342.558 80.5651C342.013 80.4755 341.493 80.1865 341.554 79.5625C341.608 79.0159 342.176 78.9498 342.632 78.9632C344.496 79.0226 346.335 78.6496 348.189 78.6093C351.139 78.5454 354.088 78.5488 357.039 78.5275C357.424 78.5252 357.81 78.523 358.192 78.5566C358.749 78.6059 359.198 78.8591 359.291 79.4864C359.388 80.1406 358.951 80.4385 358.454 80.6715C357.908 80.9247 357.332 80.9325 356.754 80.9325C354.766 80.9325 352.777 80.9325 350.789 80.9325C350.791 80.946 350.791 80.9628 350.791 80.9773Z" fill="#489639"/>
<path fill-rule="evenodd" clip-rule="evenodd" d="M354.822 94.3804C352.899 94.3815 350.974 94.3893 349.052 94.3748C348.541 94.3714 348.026 94.3289 347.521 94.2381C347.006 94.1451 346.451 93.939 346.496 93.2714C346.53 92.7259 347.07 92.55 347.499 92.4794C348.447 92.3271 349.409 92.2554 350.364 92.159C353.945 91.8006 357.541 91.9328 361.128 91.8622C361.383 91.8577 361.645 91.86 361.894 91.9115C362.55 92.0493 362.903 92.4906 362.873 93.1896C362.847 93.7957 362.491 94.1866 361.932 94.302C361.56 94.3804 361.168 94.3748 360.784 94.377C358.797 94.3837 356.808 94.3804 354.822 94.3804Z" fill="#CAA7FE"/>
<path fill-rule="evenodd" clip-rule="evenodd" d="M316.606 86.9793C315.78 86.9334 314.433 87.0723 313.099 86.8124C312.418 86.6802 311.768 86.4259 311.784 85.6183C311.802 84.8061 312.486 84.5776 313.157 84.4824C315.64 84.1307 318.138 84.2427 320.632 84.2707C321.418 84.2796 322.007 84.7412 321.989 85.6384C321.971 86.5368 321.344 86.9289 320.573 86.9647C319.425 87.0163 318.271 86.9793 316.606 86.9793Z" fill="#F8C765"/>
<path fill-rule="evenodd" clip-rule="evenodd" d="M335.193 81.0054C334.998 80.9942 334.348 81.0188 333.723 80.9034C333.099 80.7892 332.706 80.3434 332.719 79.6309C332.732 79.0204 333.058 78.6071 333.608 78.467C334.934 78.131 336.277 78.159 337.606 78.4222C338.226 78.5454 338.626 78.9958 338.601 79.7104C338.576 80.5271 338.066 80.9113 337.366 80.9919C336.798 81.0569 336.214 81.0054 335.193 81.0054Z" fill="#F3924B"/>
<path fill-rule="evenodd" clip-rule="evenodd" d="M276.344 102.932C275.668 102.866 275.018 102.869 274.4 102.72C273.959 102.615 273.607 102.249 273.604 101.706C273.603 101.266 273.86 100.928 274.227 100.766C275.502 100.202 276.85 100.21 278.191 100.361C278.766 100.425 279.053 100.936 279.083 101.515C279.115 102.136 278.716 102.561 278.212 102.702C277.603 102.871 276.949 102.866 276.344 102.932Z" fill="#C6A5FB"/>
<path fill-rule="evenodd" clip-rule="evenodd" d="M303.144 109.153C302.475 109.066 301.716 108.991 300.967 108.859C300.548 108.786 300.315 108.443 300.276 108.013C300.235 107.557 300.505 107.218 300.88 107.108C302.23 106.714 303.615 106.549 305.008 106.7C305.547 106.76 305.894 107.226 305.871 107.846C305.851 108.461 305.503 108.836 304.942 108.938C304.38 109.039 303.807 109.076 303.144 109.153Z" fill="#FBC965"/>
<path fill-rule="evenodd" clip-rule="evenodd" d="M333.827 127.919C333.021 127.864 332.302 127.982 331.654 127.612C331.312 127.417 331.011 127.145 330.997 126.7C330.983 126.231 331.311 126.009 331.671 125.833C332.891 125.236 334.172 125.376 335.429 125.559C335.966 125.636 336.255 126.168 336.208 126.779C336.16 127.391 335.815 127.765 335.244 127.843C334.739 127.91 334.226 127.9 333.827 127.919Z" fill="#47963A"/>
<path fill-rule="evenodd" clip-rule="evenodd" d="M266.188 77.0444C266.712 77.0209 267.222 77.1049 267.666 77.404C268.6 78.0369 268.547 79.2747 267.589 79.8774C267.116 80.1754 266.602 80.1451 266.094 80.1205C264.88 80.0611 264.169 79.5066 264.134 78.6273C264.093 77.6695 264.892 77.0545 266.188 77.0444Z" fill="#F1C266"/>
<path fill-rule="evenodd" clip-rule="evenodd" d="M267.065 102.826C266.493 102.826 265.915 102.869 265.347 102.812C264.951 102.772 264.641 102.51 264.588 102.044C264.546 101.681 264.707 101.404 264.955 101.169C265.66 100.498 268.161 100.147 268.993 100.61C269.496 100.888 269.751 101.316 269.654 101.922C269.556 102.541 269.163 102.848 268.596 102.886C268.087 102.921 267.576 102.894 267.065 102.894C267.065 102.871 267.065 102.849 267.065 102.826Z" fill="#C5A5FB"/>
<path fill-rule="evenodd" clip-rule="evenodd" d="M326.438 80.7231C326.025 80.6928 325.574 80.7007 325.142 80.6178C324.576 80.5091 324.272 80.1036 324.235 79.4998C324.204 78.9801 324.416 78.5342 324.857 78.364C325.956 77.9405 327.105 77.9752 328.219 78.2777C328.746 78.42 329.005 78.9498 328.952 79.5402C328.898 80.1361 328.549 80.5226 327.985 80.6088C327.487 80.6872 326.976 80.6872 326.438 80.7231Z" fill="#F7944B"/>
<path fill-rule="evenodd" clip-rule="evenodd" d="M321.273 102.488C321.02 102.472 320.762 102.487 320.516 102.43C319.905 102.29 319.095 102.237 319.021 101.457C318.942 100.601 319.717 100.219 320.381 100.046C320.978 99.8907 321.64 99.9299 322.264 99.9892C322.882 100.049 323.364 100.446 323.402 101.125C323.444 101.925 322.907 102.297 322.22 102.428C321.913 102.487 321.591 102.469 321.273 102.488Z" fill="#F3924C"/>
<path fill-rule="evenodd" clip-rule="evenodd" d="M355.52 84.6213C356.291 84.7244 356.855 85.0761 356.874 85.8468C356.892 86.529 356.355 86.8606 355.753 87.0141C355.693 87.0309 355.629 87.0376 355.564 87.0398C354.725 87.0813 353.886 87.0869 353.322 86.277C353.166 86.0563 353.183 85.7404 353.359 85.5253C353.941 84.8017 354.74 84.6381 355.52 84.6213Z" fill="#47943B"/>
<path fill-rule="evenodd" clip-rule="evenodd" d="M304.975 119.511C305.426 119.512 305.86 119.595 306.224 119.886C306.774 120.324 306.763 121.14 306.213 121.581C305.842 121.878 305.402 121.911 304.956 121.915C304.16 121.921 303.391 121.778 303.157 120.843C303 120.208 303.997 119.52 304.975 119.511Z" fill="#BEA1F6"/>
<path fill-rule="evenodd" clip-rule="evenodd" d="M312.306 121.479C312.115 121.479 311.922 121.481 311.729 121.478C311.082 121.467 310.55 121.209 310.528 120.473C310.502 119.625 311.087 119.32 311.798 119.305C312.308 119.295 312.823 119.346 313.327 119.422C313.896 119.509 314.278 119.867 314.279 120.491C314.28 121.156 313.832 121.407 313.266 121.453C312.949 121.479 312.626 121.458 312.307 121.458C312.306 121.466 312.306 121.472 312.306 121.479Z" fill="#C5A5FB"/>
<path fill-rule="evenodd" clip-rule="evenodd" d="M363.711 114.293C363.728 115.068 363.021 115.705 362.136 115.673C361.42 115.647 360.895 115.329 360.823 114.508C360.75 113.701 361.378 113.182 362.387 113.182C363.216 113.184 363.692 113.584 363.711 114.293Z" fill="#F2C066"/>
<path fill-rule="evenodd" clip-rule="evenodd" d="M326.211 127.884C325.236 127.866 324.646 127.43 324.773 126.758C324.953 125.816 325.692 125.797 326.4 125.803C327.085 125.808 327.738 126.011 327.727 126.857C327.715 127.872 326.922 127.868 326.211 127.884Z" fill="#47953A"/>
<path fill-rule="evenodd" clip-rule="evenodd" d="M404.445 129.03C399.776 126.801 395.853 123.549 392.395 119.591C387.466 113.952 384.447 107.281 382.731 99.9556C381.614 95.1847 381.651 90.3746 383.572 85.7382C383.983 84.7491 384.431 83.798 385.142 83.0072C387.67 80.443 390.508 78.6127 394.127 78.1747C396.688 77.8655 399.07 78.1455 401.374 79.3341C403.379 80.3702 405.334 81.4949 407.093 82.9568C407.736 83.4922 408.458 83.9918 408.431 85.0157C407.865 86.156 406.674 86.2983 405.739 86.8236C399.101 90.5359 397.034 100.466 401.617 106.733C404.992 111.345 411.76 112.32 416.743 108.94C417.383 108.505 417.922 107.593 418.91 108.187C420.457 114.17 420.201 119.939 416.712 125.16C414.41 128.607 409.616 130.28 405.76 129.26C405.327 129.145 404.908 128.952 404.445 129.03Z" fill="#FFCB65"/>
<path fill-rule="evenodd" clip-rule="evenodd" d="M432.081 101.497C439.267 115.244 445.974 129.251 452.788 143.202C456.065 149.907 459.305 156.634 462.546 163.359C462.984 164.27 463.476 165.053 464.288 165.697C466.388 167.365 467.2 172.119 464.685 174.329C463.99 174.94 463.712 175.689 463.535 176.563C461.054 188.801 458.574 201.038 456.072 213.271C454.105 222.872 452.101 232.465 450.124 242.063C449.786 243.707 449.457 245.354 449.184 247.008C449.06 247.761 448.704 248.01 448.015 247.999C446.418 247.972 444.82 247.989 443.499 247.989C443.003 247.535 443.036 247.26 443.086 247.008C445.598 234.573 448.104 222.138 450.631 209.708C452.876 198.657 455.126 187.608 457.412 176.568C457.67 175.33 457.689 174.346 456.909 173.204C455.707 171.44 455.625 169.379 456.74 167.494C457.266 166.608 457.199 165.973 456.774 165.119C449.182 149.845 441.629 134.549 434.019 119.284C432.861 116.965 431.456 114.781 430.164 112.535C429.899 112.204 429.796 111.793 429.909 111.41C430.823 108.276 431.047 105.018 431.528 101.806C431.653 101.588 431.838 101.486 432.081 101.497Z" fill="#4C5369"/>
<path fill-rule="evenodd" clip-rule="evenodd" d="M431.834 101.571C432.034 105.353 431.28 108.974 430.164 112.536C428.829 115.13 427.866 117.929 426.124 120.306C422.706 124.967 418.541 128.514 413.027 130.01C410.085 130.809 407.187 130.515 404.446 129.03C404.822 128.602 405.231 128.796 405.68 128.897C409.988 129.869 415.89 127.357 417.898 121.853C419.342 117.898 419.323 113.899 418.81 109.819C418.733 109.223 418.696 108.622 418.643 108.022C417.957 107.581 417.888 106.829 417.766 106.105C416.508 98.6497 413.96 91.8277 408.897 86.2391C408.591 85.8974 408.317 85.5233 408.308 85.0158C406.858 82.9469 404.686 81.8838 402.646 80.6807C401.333 79.9078 400.011 79.1427 398.427 78.8839C394.307 78.2118 390.63 79.0732 387.303 81.7337C386.662 82.2456 386.143 83.116 385.143 83.0051C387.766 79.1349 391.421 76.8049 395.632 75.315C403.61 72.4899 410.983 74.0918 417.944 78.6913C418.43 79.0128 418.925 79.3186 419.415 79.63C419.841 79.77 420.31 79.8126 420.661 80.1385C426.196 85.2668 430.924 90.9304 432.02 99.0059C432.137 99.8863 432.211 100.74 431.834 101.571Z" fill="#FC954A"/>
<path fill-rule="evenodd" clip-rule="evenodd" d="M437.708 221.16C437.724 221.29 437.724 221.42 437.708 221.55C436.929 222.532 435.864 222.322 434.864 222.246C428.5 221.765 422.134 221.394 415.747 221.556C415.013 221.575 414.032 222.046 413.65 220.82C412.992 214.964 413.101 209.147 414.495 203.404C415.448 199.475 417.257 196.09 420.037 193.209C423.834 189.274 431.81 188.862 435.273 195.68C436.406 197.912 437.009 200.299 437.413 202.754C438.369 208.556 438.419 214.383 437.804 220.226C437.727 220.533 437.807 220.856 437.708 221.16Z" fill="#499738"/>
<path fill-rule="evenodd" clip-rule="evenodd" d="M441.456 232.977C441.124 236.456 440.345 239.854 439.758 243.287C439.588 244.281 439.278 245.258 439.222 246.253C439.162 247.365 438.625 247.537 437.731 247.534C429.401 247.509 421.07 247.491 412.741 247.532C411.682 247.536 411.271 247.109 411.124 246.098C410.477 241.589 409.806 237.08 409.144 232.571C412.222 231.927 415.361 232.056 418.465 231.888C425.42 231.513 432.38 232.044 439.337 232.254C440.102 232.276 440.884 232.303 441.456 232.977Z" fill="#B36C4B"/>
<path fill-rule="evenodd" clip-rule="evenodd" d="M431.834 101.571C431.461 96.8045 430.035 92.3932 427.419 88.4972C425.32 85.3719 422.668 82.7339 419.94 80.2C419.752 80.0252 419.588 79.8236 419.414 79.6343C423.659 77.5821 427.869 75.4616 432.355 74.0087C434.167 73.4217 435.767 73.6962 437.312 74.7077C443.126 78.5219 445.817 84.0221 445.366 91.2036C445.26 92.8436 444.546 94.1475 443.338 95.1735C441.73 96.5402 439.93 97.5663 438.049 98.4411C436.467 99.1782 434.866 99.8705 433.279 100.598C432.823 100.806 432.264 100.883 432.082 101.499C432.007 101.555 431.926 101.579 431.834 101.571Z" fill="#C77940"/>
<path fill-rule="evenodd" clip-rule="evenodd" d="M413.65 220.82C414.377 221.407 415.142 220.869 415.87 220.843C421.633 220.638 427.377 221.122 433.127 221.314C434.651 221.365 436.167 221.733 437.708 221.549C439.346 221.673 440.983 221.819 442.626 221.914C443.449 221.961 443.761 222.315 443.561 223.183C443.118 225.108 442.705 227.038 442.277 228.967C440.474 228.164 438.589 227.979 436.643 227.987C428.501 228.024 420.36 228.013 412.217 227.99C410.905 227.985 409.674 228.127 408.598 228.985C407.992 226.786 407.885 224.499 407.514 222.259C407.373 221.414 407.813 221.253 408.5 221.205C410.217 221.086 411.964 221.4 413.65 220.82Z" fill="#B36C4B"/>
<path fill-rule="evenodd" clip-rule="evenodd" d="M408.596 228.987C408.887 227.351 408.887 227.317 410.325 227.314C419.788 227.302 429.254 227.314 438.718 227.287C439.633 227.284 440.466 227.672 441.361 227.695C442.189 227.718 442.172 228.388 442.276 228.969C442.123 230.332 441.935 231.686 441.455 232.977C434.933 233.09 428.43 232.282 421.905 232.547C420.179 232.617 418.413 232.355 416.728 232.645C414.808 232.98 412.906 232.859 410.995 232.947C410.349 232.977 409.715 232.949 409.143 232.571C408.901 231.387 408.628 230.207 408.596 228.987Z" fill="#824F37"/>
<path fill-rule="evenodd" clip-rule="evenodd" d="M437.708 221.16C437.62 220.834 437.56 220.51 437.803 220.222C437.939 220.556 437.902 220.867 437.708 221.16Z" fill="#B36C4B"/>
<path fill-rule="evenodd" clip-rule="evenodd" d="M408.308 85.0157C411.031 87.1026 412.745 90.0431 414.235 93.09C416.349 97.4151 417.959 101.946 418.368 106.857C418.4 107.25 418.548 107.635 418.644 108.022C415.989 110.873 412.74 111.783 409.034 111.367C402.765 110.665 398.663 105.92 398.614 99.2645C398.582 94.973 399.835 91.2271 402.809 88.197C404.363 86.612 406.337 85.8121 408.308 85.0157Z" fill="#FFF0D2"/>
<path fill-rule="evenodd" clip-rule="evenodd" d="M26.9937 391.427C25.4046 381.934 25.7934 372.373 26.0956 362.818C26.181 360.128 25.1013 357.851 23.8358 355.653C22.6568 353.607 21.0324 351.989 19.1262 350.675C13.3058 346.659 9.01268 341.291 5.78107 334.812C2.97236 329.184 1.29354 323.242 0.179674 317.066C0.0728792 316.472 0.00452926 315.862 0.000257461 315.26C-0.0157618 313.578 0.715783 313.019 2.18742 313.685C3.77439 314.407 5.38806 315.121 6.85329 316.073C13.5472 320.414 19.2821 325.806 23.3542 332.985C24.8098 335.55 25.8617 338.282 26.6808 341.127C26.8068 341.566 26.8367 342.041 27.4401 342.645C27.4401 341.929 27.4262 341.446 27.4423 340.962C27.7221 332.817 28.0136 324.676 27.9944 316.523C27.9891 314.319 27.3547 312.432 26.0283 310.777C25.2017 309.749 24.357 308.733 23.4642 307.766C18.7663 302.672 15.5848 296.692 13.7576 289.878C11.1966 280.325 10.0924 270.621 10.8485 260.707C10.9094 259.907 10.9745 259.082 11.2073 258.325C11.5523 257.21 12.4312 256.997 13.3261 257.717C13.5782 257.921 13.7843 258.189 13.9968 258.439C21.12 266.813 25.6513 276.59 28.1888 287.426C30.0513 295.376 30.801 303.474 30.9078 311.642C30.9419 314.193 30.9131 316.745 30.9131 319.562C31.446 318.894 31.5453 318.313 31.7643 317.786C36.2187 307.059 42.6114 297.971 52.0564 291.481C52.9662 290.856 53.9146 290.272 54.9014 289.794C56.4307 289.05 57.2829 289.562 57.3779 291.289C57.4442 292.496 57.3801 293.715 57.3 294.922C56.8472 301.745 54.6675 308.061 52.0606 314.242C49.8873 319.397 46.6621 323.688 42.3273 327.047C39.587 329.173 37.0132 331.498 34.5975 334.025C32.9774 335.721 31.8262 337.718 30.7657 339.801C30.4891 340.346 30.3428 340.926 30.3076 341.538C29.9968 346.916 29.6871 352.294 29.3827 357.67C29.3721 357.853 29.419 358.041 29.4489 358.325C29.9957 357.893 30.0801 357.279 30.2958 356.758C33.9557 347.928 40.0473 341.713 48.5428 338.08C50.0272 337.445 51.5096 336.802 53.0004 336.179C53.4757 335.981 53.9626 335.79 54.4614 335.678C56.1316 335.306 56.8835 335.967 56.8333 337.781C56.7596 340.488 56.342 343.152 55.5742 345.728C53.5141 352.652 50.4662 358.939 44.9524 363.633C42.8891 365.39 40.5695 366.674 38.2713 368.013C36.4761 369.06 34.6734 370.089 32.8824 371.139C31.8689 371.732 30.9377 372.448 30.1442 373.348C29.1093 374.519 28.5273 375.808 28.5487 377.504C28.6053 382.15 28.6725 386.793 29.1756 391.416C28.4515 392.53 27.7242 392.664 26.9937 391.427Z" fill="#499838"/>
<path fill-rule="evenodd" clip-rule="evenodd" d="M13.6337 421.685C13.1702 419.112 12.7035 416.538 12.2507 413.964C12.1588 413.438 12.1215 412.903 12.0585 412.372C13.4649 410.551 14.9718 410.085 16.6976 411.407C18.6552 412.907 20.4461 413.222 22.4998 411.759C23.6542 410.936 24.8546 411.257 25.9236 412.028C27.6858 413.299 29.4051 413.213 31.1096 411.956C32.4712 410.953 33.6417 411.145 34.9339 412.236C36.8541 413.858 37.9327 413.732 39.8732 412.027C42.4085 409.799 43.8727 409.794 46.6333 412.01C45.8345 415.45 45.0324 418.89 44.2411 422.333C44.1375 422.783 44.0937 423.248 44.0211 423.708C44.4654 425.535 43.5298 426.625 42.1565 427.445C41.5413 427.81 40.844 427.991 40.1519 428.118C35.7392 428.926 31.3189 429.412 26.8186 428.974C23.8326 428.681 20.8188 428.714 17.8745 427.972C14.3375 427.079 13.5696 426.05 13.765 422.268C13.7757 422.058 13.701 421.873 13.6337 421.685Z" fill="#FC954A"/>
<path fill-rule="evenodd" clip-rule="evenodd" d="M26.9937 391.426C27.7221 391.85 28.4483 391.822 29.1713 391.415C34.9873 391.62 40.8023 391.829 46.6216 391.789C47.1972 391.785 47.7781 391.748 48.3463 391.817C49.6033 391.973 50.1095 392.566 50.1768 393.93C50.259 395.687 49.9322 397.384 49.4655 399.057C39.572 399.367 29.6764 399.575 19.7904 400.114C16.4061 400.296 13.0121 400.052 9.62781 400.317C8.99345 398.409 8.8717 396.388 8.52782 394.419C8.27365 392.967 8.84928 392.327 10.307 392.192C11.8993 392.041 13.497 391.927 15.0946 391.863C19.0621 391.698 23.0274 391.567 26.9937 391.426Z" fill="#FC954A"/>
<path fill-rule="evenodd" clip-rule="evenodd" d="M11.5726 410.02C10.8837 408.043 10.6466 405.964 10.2835 403.912C10.9756 403.121 11.9143 403.181 12.7932 403.205C21.0549 403.444 29.2802 402.544 37.5258 402.307C40.3976 402.224 43.2682 401.914 46.1495 401.989C47.0306 402.012 47.9672 401.905 48.6581 402.701C48.3922 405.051 47.7995 407.322 47.1684 409.585C46.0438 409.567 45.0634 409.002 44.0499 408.61C42.6338 408.063 41.3801 408.201 40.3132 409.308C38.5222 411.169 36.7227 411.734 34.5965 409.808C33.489 408.807 32.2075 408.943 31.0562 409.879C29.3336 411.284 27.6559 411.49 25.8083 410.029C24.6186 409.09 23.2217 409.197 22.0171 410.093C20.5102 411.217 19.14 411.286 17.646 410.052C16.2053 408.861 14.6365 408.629 13.0196 409.796C12.6021 410.099 12.1065 410.317 11.5726 410.02Z" fill="#FC954A"/>
<path fill-rule="evenodd" clip-rule="evenodd" d="M13.6337 421.685C13.9722 422.901 14.3311 424.111 14.6418 425.335C14.8864 426.297 15.4407 426.677 16.3783 426.911C22.0342 428.323 27.752 428.593 33.5371 428.279C36.1065 428.141 38.6226 427.819 41.1312 427.237C42.5495 426.906 43.4327 426.175 43.6623 424.633C43.7093 424.313 43.8972 424.015 44.0211 423.709C45.387 423.805 46.6141 424.401 47.8486 424.935C48.7906 425.342 49.8681 425.783 49.7645 427.136C49.6642 428.433 49.2124 429.587 48.0323 430.306C46.911 430.99 45.7149 431.539 44.4558 431.677C41.5445 431.994 38.6718 432.728 35.7189 432.61C33.6716 432.529 31.6746 433.148 29.6123 433.021C23.8134 432.667 18.055 432.087 12.4483 430.387C11.8353 430.201 11.2276 429.99 10.6274 429.758C9.01481 429.141 8.20531 428.136 8.19356 426.761C8.18395 425.448 9.24656 423.987 10.6498 423.473C11.3098 423.233 11.9976 423.024 12.6886 422.94C13.4671 422.84 13.591 422.329 13.6337 421.685Z" fill="#DCB1F0"/>
<path fill-rule="evenodd" clip-rule="evenodd" d="M48.6581 402.701C46.2841 402.703 43.8727 402.429 41.5456 402.776C37.9157 403.317 34.2419 402.682 30.644 403.46C30.4571 403.499 30.2595 403.486 30.0673 403.49C23.4716 403.598 16.8867 404.168 10.2835 403.911C10.0048 402.725 9.70044 401.546 9.62996 400.319C9.76666 399.935 9.91083 399.553 10.3754 399.51C10.6306 399.485 10.8869 399.457 11.1422 399.469C17.0981 399.729 23.0306 399.063 28.9823 398.999C33.772 398.946 38.5671 398.694 43.3601 398.57C44.9363 398.528 46.5319 398.268 48.1295 398.254C48.7329 398.247 49.3064 398.267 49.4666 399.057C49.363 400.313 49.128 401.534 48.6581 402.701Z" fill="#C77437"/>
<path fill-rule="evenodd" clip-rule="evenodd" d="M11.5726 410.02C11.9154 409.838 12.3116 409.718 12.5914 409.461C14.3503 407.847 16.09 408.156 17.8425 409.448C17.9482 409.525 18.0582 409.599 18.1479 409.691C19.2575 410.84 20.303 410.708 21.4927 409.718C23.1683 408.326 24.9721 408.431 26.6114 409.8C27.7904 410.782 28.8477 410.911 30.0021 409.865C30.1431 409.736 30.3652 409.701 30.5009 409.567C32.2822 407.815 33.9226 408.449 35.6356 409.77C37.3464 411.088 37.4383 411.054 39.0818 409.633C42.2547 406.886 41.6674 407.249 45.3966 408.513C46.047 408.732 46.8053 408.817 47.1684 409.585C47.1502 410.434 46.8939 411.221 46.6322 412.01C45.5835 411.958 44.6576 411.492 43.7285 411.051C42.73 410.574 41.8927 410.74 41.127 411.583C40.6005 412.162 40.0281 412.713 39.4108 413.179C37.8452 414.363 36.6298 414.547 35.2639 413.196C33.5958 411.545 32.247 411.59 30.4945 412.967C29.0837 414.074 27.4764 413.922 26.0486 412.758C24.7542 411.701 23.461 411.426 22.0716 412.581C21.7277 412.867 21.2791 413.013 20.8819 413.23C19.957 413.734 19.0599 413.813 18.2024 413.066C18.0561 412.937 17.8724 412.859 17.7133 412.748C14.9686 410.833 15.4844 410.565 12.0585 412.373C11.564 411.664 11.6345 410.826 11.5726 410.02Z" fill="#C87537"/>
<path fill-rule="evenodd" clip-rule="evenodd" d="M239.271 249.253C243.567 249.233 247.865 249.244 252.163 249.247C254.92 249.247 257.678 249.251 260.436 249.245C263.774 249.239 264.33 248.597 264.066 245.086C263.868 244.03 264.643 243.802 265.31 243.482C266.072 239.681 266.838 235.883 267.6 232.083C268.69 226.642 269.765 221.197 270.874 215.76C273.022 205.215 275.187 194.671 277.353 184.13C278.62 177.975 279.9 171.824 281.18 165.67C281.489 164.185 281.893 163.911 283.461 163.833C298.34 163.098 313.231 163.745 328.112 163.385C351.085 162.83 374.059 163.152 397.032 163.027C400.751 163.007 400.935 163.187 400.173 167.058C399.037 172.832 397.778 178.579 396.59 184.343C395.083 191.676 393.602 199.015 392.088 206.347C390.898 212.109 389.688 217.867 388.461 223.62C386.941 230.748 385.409 237.873 383.841 244.99C383.588 246.134 383.709 247.266 383.625 248.401C383.51 249.946 383.196 250.264 381.748 250.312C381.237 250.328 380.722 250.315 380.208 250.315C342.457 250.315 304.704 250.313 266.952 250.315C257.515 250.316 248.074 250.334 238.638 250.342C238.188 250.342 237.738 250.316 237.29 250.341" fill="#CCA8FF"/>
<path fill-rule="evenodd" clip-rule="evenodd" d="M311.993 392.635C310.57 392.189 310.266 390.936 310.1 389.641C309.713 386.641 309.209 383.646 309.053 380.63C308.722 374.23 307.668 367.936 306.879 361.6C306.142 355.664 305.373 349.731 304.7 343.787C304.109 338.567 302.96 333.452 302.168 328.274C301.821 326.014 301.483 323.756 301.166 321.493C301.089 320.942 300.911 320.777 300.446 321.115C299.731 318.821 299.603 316.402 299.046 314.071C298.236 310.68 297.448 307.287 296.448 303.95C296.059 302.657 295.374 302.03 294.024 301.807C290.705 301.257 287.361 301.743 284.045 301.363C279.699 301 275.348 300.764 271.006 300.356C269.854 300.248 268.733 299.994 267.591 299.854C265.019 300.114 262.47 299.615 259.92 299.459C250.957 298.916 241.989 298.842 233.02 298.594C228.344 298.464 223.659 298.556 218.992 298.276C211.764 297.843 204.522 297.867 197.297 297.25C193.049 296.885 188.866 296.564 184.908 294.793C181.443 293.241 178.347 291.13 175.841 288.141C171.311 282.58 169.823 276.201 171.577 269.149C173.294 262.245 175.381 255.454 178.938 249.285C179.494 248.322 179.87 247.191 180.952 246.659C183.626 246.134 186.32 246.326 188.998 246.479C197.256 246.952 205.508 246.982 213.761 246.461C214.849 246.39 215.937 246.331 217.024 246.465C217.847 246.568 218.512 246.886 218.62 247.884C218.819 248.664 218.919 249.491 219.232 250.213C220.927 254.129 222.454 258.134 224.692 261.771C225.784 263.546 227.359 264.854 228.639 266.445C229.066 266.977 229.637 266.972 230.221 266.984C238.439 267.146 246.584 268.42 254.789 268.792C260.304 269.044 265.791 269.641 271.284 270.18C276.517 270.69 281.747 271.262 286.971 271.879C291.873 272.458 296.773 273.094 301.665 273.773C303.95 274.09 306.227 274.512 308.487 274.988C313.522 276.049 316.672 279.194 318.389 284.314C319.706 288.235 319.726 292.246 319.963 296.252C320.364 303.104 320.412 309.982 320.945 316.819C321.597 325.209 321.973 333.602 322.253 342.01C322.426 347.2 322.05 352.374 322.085 357.559C322.152 366.782 322.092 376.007 322.074 385.231C322.073 386.306 322.026 387.385 322.011 388.462C321.998 389.537 321.673 390.441 320.778 391.047C320.05 392.445 318.729 392.892 317.405 393.055C315.602 393.279 313.727 393.718 311.993 392.635Z" fill="#B73C67"/>
<path fill-rule="evenodd" clip-rule="evenodd" d="M280.748 420.091C281.404 420.729 282.215 420.462 282.958 420.464C299.974 420.486 316.994 420.165 334 420.578C355.756 421.104 377.515 420.399 399.259 420.979C417.293 421.463 435.321 420.967 453.346 421.368C457.375 421.455 461.419 421.476 465.437 421.767C467.677 421.928 470.032 422.129 471.969 423.75C473.715 425.21 474.41 427.622 473.761 429.832C472.64 433.635 470.179 435.764 466.558 436.558C464.369 437.036 462.17 437.334 459.924 437.502C451.53 438.132 443.117 438.101 434.738 437.759C423.125 437.284 411.508 437.918 399.914 437.372C388.62 436.84 377.326 437.512 366.052 436.976C354.503 436.427 342.951 437.108 331.42 436.562C320.513 436.047 309.602 436.707 298.715 436.162C288.063 435.629 277.41 436.299 266.781 435.761C256.194 435.224 245.605 435.895 235.039 435.354C224.71 434.825 214.376 435.488 204.067 434.95C194.571 434.455 185.072 435.077 175.6 434.534C168.413 434.125 161.223 434.013 154.066 434.33C143.541 434.799 133.028 434.426 122.512 434.614C121.426 434.634 120.351 434.632 119.266 434.339C118.542 434.144 117.722 434.17 116.968 434.276C111.791 435.016 106.582 434.689 101.407 434.502C98.5346 434.401 95.6532 434.26 92.7762 434.241C88.671 434.214 84.6032 433.769 80.5962 432.927C78.0566 432.396 75.7926 431.099 74.0358 428.979C71.728 426.194 72.3079 422.747 75.4316 421.075C77.9199 419.741 80.6624 419.374 83.3686 418.861C86.0385 418.357 88.7447 418.279 91.4113 418.517C94.785 418.814 98.1896 418.582 101.539 419.239C102.098 419.346 102.692 419.272 103.27 419.272C111.424 419.277 119.586 419.051 127.729 419.362C133.82 419.591 139.904 419.601 145.991 419.66C146.611 419.666 147.263 419.836 147.855 419.485C148.007 418.878 147.605 418.447 147.449 417.949C146.499 414.938 147.038 414.134 149.427 412.403C151.554 410.862 154.102 410.666 156.58 410.408C157.913 410.271 159.271 410.408 160.618 410.42C160.754 411.395 160.026 412.01 159.706 412.791C158.149 416.596 160.433 420.445 164.17 420.276C166.657 420.162 168.269 418.155 168.485 415.303C168.593 413.848 167.529 412.466 168.356 411.016C168.921 410.603 169.557 410.612 170.207 410.634C176.926 410.875 183.652 411.007 190.365 411.332C197.143 411.66 203.929 411.831 210.696 412.405C212.616 412.569 214.543 412.41 216.462 412.53C217.501 412.596 218.577 412.687 218.727 414.15C218.698 415.2 217.976 415.974 217.695 416.934C217.034 419.19 217.556 421.629 219.028 422.847C220.435 424.009 222.297 424.16 223.695 423.223C225.174 422.232 226.129 419.585 225.692 417.69C225.556 417.098 225.278 416.566 225.05 416.007C224.632 414.577 224.452 413.197 225.836 412.172C228.303 411.914 230.52 412.736 232.603 413.999C233.768 414.707 234.561 415.834 234.657 417.251C234.777 419.045 235.708 419.411 237.21 419.402C244.142 419.363 251.076 419.379 258.009 419.385C263.524 419.393 269.042 419.231 274.542 419.778C274.914 419.68 275.326 419.625 275.657 419.81C277.323 420.738 279.021 420.657 280.748 420.091Z" fill="#DCB1F0"/>
<path fill-rule="evenodd" clip-rule="evenodd" d="M180.59 247.08C180.336 248.591 179.364 249.736 178.66 250.986C177.247 253.491 176.19 256.158 175.268 258.862C173.782 263.214 172.326 267.587 171.515 272.158C171.408 272.759 171.252 273.364 171.351 273.949C171.704 276.054 171.717 278.205 172.294 280.282C173.041 282.973 174.283 285.357 175.949 287.521C175.267 288.844 173.911 288.809 172.791 289.158C166.694 291.054 160.603 292.956 154.841 295.831C152.059 297.216 149.306 298.663 146.811 300.6C145.299 301.773 144.825 301.593 144.258 299.662C143.296 296.377 142.456 293.058 141.853 289.679C140.597 282.66 139.179 275.685 137.38 268.793C134.296 256.966 132.082 244.925 129.547 232.965C125.744 215.023 122.291 197.001 118.67 179.017C117.543 173.423 116.095 167.897 114.11 162.545C113.221 160.15 111.706 158.111 110.802 155.737C111.966 155.068 113.268 155.115 114.517 155.057C121.993 154.709 129.47 154.409 136.948 154.121C144.491 153.831 152.033 153.573 159.575 153.301C160.514 153.792 160.379 154.747 160.413 155.583C160.489 157.598 160.452 159.618 160.441 161.634C160.435 163.011 161.022 163.53 162.306 163.543C168.138 163.605 173.952 162.873 179.786 163.105C181.057 163.156 181.415 162.394 181.448 161.201C181.492 159.664 181.246 158.102 181.727 156.596C181.945 156.084 182.362 155.87 182.804 156.126C185.286 157.576 188.133 158.209 190.492 159.931C191.103 161.476 190.75 163.079 190.751 164.66C190.325 168.134 187.881 169.901 185.32 171.437C182.947 172.86 180.469 174.103 177.966 175.275C172.758 177.128 169.222 180.894 166.804 185.96C164.163 191.492 162.794 197.381 162.267 203.509C162.149 204.871 162.39 206.181 162.929 207.43C163.495 209.809 163.439 212.185 163.273 214.629C162.935 219.588 162.946 224.574 163.271 229.537C163.455 232.349 163.561 235.168 163.878 237.974C164.063 239.602 164.433 241.15 165.148 242.593C166.075 244.462 167.506 245.561 169.586 245.587C172.405 245.623 175.196 246.162 178.025 246.053C178.978 246.016 179.978 246.079 180.59 247.08Z" fill="#C56647"/>
<path fill-rule="evenodd" clip-rule="evenodd" d="M182.198 156.309C182.205 158.391 182.193 160.476 182.23 162.559C182.247 163.489 181.921 163.925 180.994 163.866C180.163 163.811 179.328 163.861 178.497 163.831C173.239 163.641 168.004 164.271 162.752 164.293C162.24 164.295 161.726 164.315 161.215 164.295C159.901 164.246 159.873 164.223 159.848 162.761C159.8 160.074 159.777 157.386 159.727 154.698C159.717 154.232 159.63 153.768 159.579 153.302C159.581 148.786 159.241 144.288 158.837 139.799C158.248 133.222 157.844 126.639 158.207 120.034C158.739 110.356 161.443 101.386 166.555 93.2928C169.053 89.3363 172.165 85.9432 175.945 83.2682C180.371 80.1339 185.231 78.1646 190.461 77.0769C199.495 75.1984 208.346 75.8369 216.989 79.1471C225.057 82.2377 231.022 87.9786 235.197 95.7505C239.985 104.664 242.146 114.374 242.618 124.528C242.968 132.023 242.315 139.466 241.328 146.877C240.681 151.751 240.183 156.629 240.142 161.555C240.127 163.319 240.088 163.336 238.428 163.347C231.237 163.393 224.047 163.084 216.856 163.347C215.429 163.4 215.43 163.348 215.45 161.732C215.471 160.118 215.482 158.502 215.497 156.888C215.51 155.925 216.223 155.51 216.85 155.073C220.653 152.433 223.692 149.033 226.09 144.981C226.59 144.135 227.032 143.162 228.234 143.251C230.219 143.509 230.788 143.176 231.339 141.272C232.081 138.703 232.388 136.06 232.41 133.381C232.416 132.578 232.39 131.772 232.632 130.994C233.815 128.234 233.761 125.351 233.234 122.486C232.716 119.679 231.68 118.973 229.02 119.567C223.097 120.888 217.122 121.424 211.069 121.272C208.947 121.219 206.859 120.883 204.748 120.763C203.238 120.679 202.336 119.743 201.711 118.348C201.046 116.863 200.625 115.235 199.611 113.742C198.717 114.75 198.354 115.833 197.934 116.856C197.141 118.785 195.77 119.776 193.805 119.975C185.966 120.765 178.144 121.821 170.237 120.936C167.874 120.671 166.372 121.816 165.769 124.413C164.99 127.768 165.122 131.086 166.964 134.126C167.472 135.553 167.23 137.04 167.242 138.5C167.258 140.443 167.318 142.368 167.854 144.245C168.69 147.167 169.387 147.462 171.784 145.892C172.561 145.72 172.949 146.29 173.328 146.823C175.548 149.954 178.211 152.609 181.18 154.943C181.625 155.294 182.156 155.608 182.198 156.309Z" fill="#263A76"/>
<path fill-rule="evenodd" clip-rule="evenodd" d="M162.587 207.24C161.878 206.75 161.591 206.07 161.641 205.176C161.709 203.967 161.568 202.725 161.773 201.548C162.814 195.583 163.998 189.656 166.962 184.322C169.33 180.061 172.54 176.804 176.968 174.981C177.261 174.862 177.586 174.828 177.897 174.754C178.484 174.968 178.795 175.468 179.102 175.991C183.213 183.009 189.662 185.646 197.052 186.246C205.616 186.943 213.183 184.102 219.887 178.567C220.337 178.194 220.771 177.767 221.423 177.93C221.658 178.035 221.933 178.09 222.122 178.251C227.126 182.551 230.74 187.801 232.181 194.524C232.983 198.27 233.665 202.029 233.304 205.903C233.145 206.855 232.533 207.374 231.756 207.79C230.213 208.614 228.635 209.464 226.918 209.614C224.517 209.827 223.509 211.085 223.219 213.509C223.05 214.907 222.953 216.474 221.809 217.562C220.75 220.311 220.291 223.23 219.69 226.101C218.852 230.101 218.176 234.139 217.935 238.241C217.58 238.595 217.132 238.672 216.685 238.595C211.22 237.634 205.715 238.187 200.232 238.149C194.539 238.109 188.882 237.575 183.212 237.192C182.138 237.119 181.042 237.006 180.031 236.536C179.21 235.989 179.231 235.058 179.13 234.215C178.575 229.568 178.321 224.872 177.035 220.347C176.18 217.335 175.394 214.299 174.233 211.398C173.627 210.687 172.801 210.602 171.973 210.489C169.699 210.179 167.447 209.732 165.259 209.003C164.234 208.66 163.154 208.361 162.587 207.24Z" fill="#BB5FFF"/>
<path fill-rule="evenodd" clip-rule="evenodd" d="M110.804 155.738C111.995 156.449 112.487 157.73 113.098 158.894C115.343 163.169 116.516 167.848 117.752 172.507C119.055 177.416 120.213 182.368 121.027 187.379C122.176 194.444 123.765 201.404 125.135 208.416C126.66 216.217 128.311 223.992 129.927 231.775C131.786 240.733 133.682 249.688 135.533 258.651C136.669 264.156 138.311 269.523 139.544 275.002C140.657 279.95 141.603 284.936 142.489 289.94C143.15 293.669 144.121 297.345 145.272 300.995C152.295 295.532 160.255 292.476 168.428 289.913C170.938 289.128 173.442 288.32 175.949 287.522C177.679 288.898 179.089 290.643 180.978 291.863C185.447 294.749 190.229 296.27 195.48 296.449C198.535 296.552 201.607 296.669 204.646 297.137C205.275 297.234 205.926 297.2 206.567 297.2C214.385 297.202 222.202 297.509 230.011 297.747C235.713 297.921 241.42 297.701 247.105 298.085C250.175 298.291 253.257 298.197 256.302 298.514C258.414 298.732 260.518 298.721 262.622 298.852C264.34 298.964 266.041 299.345 267.776 299.295C267.995 299.583 268.145 299.903 268.176 300.275C268.265 301.479 268.145 302.689 268.288 303.893C267.87 309.895 264.251 313.631 258.547 314.061C255.267 314.307 252.027 313.674 248.757 313.681C239.909 313.695 231.061 313.717 222.213 313.674C215.615 313.643 209.026 313.134 202.424 313.2C196.107 313.432 189.789 313.27 183.473 313.292C182.675 313.297 181.989 312.944 181.286 312.634C173.132 312.603 164.978 312.453 156.836 312.039C153.953 311.892 151.062 311.865 148.185 311.615C144.028 311.256 142.14 310.987 140.9 305.291C139.371 298.274 137.779 291.272 136.262 284.252C128.446 248.031 121.046 211.715 113.505 175.429C112.316 169.712 111.165 163.985 109.985 158.264C109.775 157.234 109.566 156.236 110.804 155.738Z" fill="#965642"/>
<path fill-rule="evenodd" clip-rule="evenodd" d="M166.697 134.41C164.345 131.275 163.958 125.835 165.785 122.419C166.783 120.558 168.375 120.064 170.199 120.266C172.504 120.521 174.81 120.5 177.118 120.537C182.969 120.632 188.759 119.82 194.566 119.236C195.865 119.106 196.679 118.426 197.145 117.176C197.796 115.425 198.572 113.738 199.621 112.09C200.398 113.026 200.589 114.109 201.015 115.067C201.504 116.163 201.974 117.274 202.352 118.414C202.75 119.619 203.558 120.016 204.685 120.126C212.973 120.936 221.222 120.86 229.351 118.776C231.707 118.171 232.877 119.027 233.604 121.253C234.437 123.803 234.48 126.404 233.956 129.018C233.801 129.789 233.666 130.619 232.982 131.146C232.341 131.218 232.327 130.727 232.267 130.274C232.157 130.999 232.471 131.796 231.956 132.46C231.193 132.992 231.049 133.857 230.905 134.698C230.468 137.253 229.663 139.692 228.819 142.121C228.6 142.657 228.284 143.128 227.91 143.56C227.385 143.62 227.19 144.063 226.969 144.467C224.318 149.331 220.735 153.255 216.205 156.231C215.941 156.404 215.731 156.669 215.495 156.889C212.858 157.995 210.221 159.103 207.584 160.209C206.584 161.221 205.266 161.295 204.017 161.436C200.269 161.858 196.516 161.926 192.776 161.283C191.743 161.106 190.781 160.813 190.151 159.843C187.29 159.179 184.716 157.806 182.193 156.308C178.54 153.764 175.333 150.725 172.795 146.943C172.579 146.618 172.29 146.347 172.035 146.053C171.473 145.816 171.184 145.313 170.904 144.797C169.846 142.71 169.235 140.449 168.608 138.196C168.356 137.293 168.111 136.386 167.371 135.758C166.939 135.424 167.486 134.55 166.697 134.41Z" fill="#FFBFA1"/>
<path fill-rule="evenodd" clip-rule="evenodd" d="M218.346 414.735C218.423 413.817 218.255 413.11 217.144 413.219C217.018 413.232 216.888 413.213 216.761 413.219C212.154 413.426 207.566 412.891 202.971 412.71C196.658 412.461 190.342 412.188 184.031 411.874C180.454 411.697 176.881 411.714 173.307 411.576C172.223 411.535 171.144 411.58 170.069 411.286C169.479 411.126 168.794 411.026 168.248 411.555C168.136 413.832 167.604 414.461 165.648 414.632C162.846 414.879 161.497 414.08 161.085 411.945C160.984 411.421 161.019 410.884 160.943 410.358C161.373 409.95 161.665 409.528 161.759 408.852C161.913 407.734 162.043 406.594 162.459 405.522C163.106 403.855 164.138 402.998 165.973 403.028C171.744 403.13 177.516 403.106 183.287 403.13C183.607 403.131 183.928 403.137 184.248 403.137C186.354 403.141 186.364 403.141 186.367 400.942C186.388 389.174 186.198 377.396 186.474 365.632C186.787 352.253 186.577 338.874 186.832 325.498C186.872 323.356 187.134 321.216 187.102 319.063C188.092 318.038 189.357 318.339 190.518 318.376C192.658 318.446 194.785 318.915 196.942 318.528C197.441 318.437 197.948 318.593 198.344 318.989C197.608 321.294 198.134 323.621 198.15 325.955C198.267 343.257 198.439 360.565 198.092 377.863C197.938 385.535 197.962 393.204 197.845 400.873C197.805 403.467 197.964 403.491 200.472 403.614C207.007 403.934 213.526 404.534 220.027 405.308C222.386 405.588 224.522 406.492 225.655 408.969C225.893 410 225.864 411.042 225.717 412.086C225.693 412.198 225.667 412.309 225.642 412.421C225.386 413.605 224.978 414.792 225.655 415.974C225.169 418.509 223.587 419.293 220.494 418.534C218.476 418.038 217.797 416.837 218.346 414.735Z" fill="#ADADAD"/>
<path fill-rule="evenodd" clip-rule="evenodd" d="M284.2 300.851C286.439 300.851 288.684 300.91 290.921 300.832C292.473 300.781 293.939 301.396 295.489 301.298C296.174 301.255 296.412 301.841 296.616 302.458C297.847 306.197 298.791 310.018 299.628 313.87C299.925 315.238 300.056 316.655 300.475 317.979C300.821 319.079 300.656 320.073 300.446 321.115C298.838 327.131 296.855 333.014 294.764 338.863C291.105 349.115 287.01 359.197 283.684 369.578C281.48 376.452 279.459 383.391 277.32 390.286C276.765 392.074 276.053 393.806 275.448 395.575C275.084 396.644 274.505 397.464 273.442 397.832C270.529 398.271 267.951 397.574 265.814 395.369C265.392 394.317 265.554 393.248 265.772 392.195C270.694 368.335 274.413 344.212 280.13 320.526C281.343 315.506 282.335 310.43 283.362 305.365C283.83 304.19 283.608 302.941 283.722 301.726C283.787 301.378 283.91 301.064 284.2 300.851Z" fill="#993457"/>
<path fill-rule="evenodd" clip-rule="evenodd" d="M162.587 207.24C165.712 208.844 169.073 209.479 172.481 209.949C173.254 210.056 174.177 209.848 174.647 210.821C175.912 217.703 175.43 224.695 175.812 231.633C175.961 234.335 175.84 235.022 178.477 235.25C179.012 235.296 179.394 235.693 179.794 236.027C183.546 236.521 187.315 236.787 191.09 237.053C198.401 237.574 205.712 237.492 213.025 237.365C214.738 237.334 216.288 238.022 217.933 238.237C219.982 239.381 221.751 240.889 223.25 242.744C223.579 243.151 223.941 243.548 224.178 244.013C225.113 245.852 224.486 246.989 222.498 247.088C221.604 247.133 220.708 247.134 219.813 247.122C219.247 247.114 218.807 247.265 218.62 247.881C218.343 247.414 218.053 247.031 217.425 247.071C215.897 247.169 214.348 246.901 212.836 247.327C212.081 247.537 211.311 247.511 210.544 247.509C204.139 247.483 197.728 247.6 191.331 247.356C187.75 247.219 184.174 247.014 180.589 247.078C179.779 246.868 178.961 246.686 178.119 246.732C175.101 246.895 172.125 246.186 169.108 246.275C166.982 246.339 165.705 244.923 164.698 243.209C163.915 241.882 163.47 240.388 163.3 238.841C162.436 230.94 162.38 222.998 162.601 215.071C162.679 212.452 162.589 209.851 162.587 207.24Z" fill="#FFC3A7"/>
<path fill-rule="evenodd" clip-rule="evenodd" d="M221.422 177.929C216.239 182.855 210.121 185.858 203.243 186.741C195.921 187.681 188.945 186.379 182.889 181.515C180.656 179.721 178.988 177.472 177.896 174.754C180.179 173.551 182.468 172.359 184.745 171.141C186.355 170.279 187.752 169.113 188.974 167.719C189.634 166.964 190.063 166.071 190.259 165.063C190.372 164.094 190.669 163.407 191.82 163.729C197.022 165.183 202.151 164.845 207.218 163.009C207.459 162.921 207.723 162.974 207.976 163.011C208.599 163.934 208.311 165.071 208.672 166.094C209.601 168.722 211.244 170.708 213.337 172.31C215.037 173.611 216.805 174.811 218.7 175.801C219.711 176.33 220.801 176.82 221.422 177.929Z" fill="#FFC3A7"/>
<path fill-rule="evenodd" clip-rule="evenodd" d="M221.808 217.561C222.299 215.267 222.825 212.982 223.26 210.675C223.412 209.875 223.729 209.58 224.5 209.473C226.924 209.138 229.286 208.545 231.481 207.344C232.174 206.965 232.806 206.535 233.304 205.901C233.319 212.892 233.348 219.881 233.337 226.872C233.335 227.733 233.072 228.591 233.016 229.457C232.907 231.178 232.934 231.209 234.476 231.762C237.139 232.717 239.82 233.618 242.477 234.587C250.15 237.38 257.738 240.413 265.311 243.484C265.383 244.361 264.556 244.219 264.179 244.587C263.603 245.403 262.732 245.385 261.916 245.381C255.726 245.346 249.547 244.803 243.352 244.956C242.131 244.876 237.94 244.663 236.097 244.14C233.006 243.583 230.014 242.391 227.061 241.346C223.354 240.03 221.647 236.912 221.476 233.034C221.307 229.228 221.193 225.396 221.733 221.585C221.919 220.268 221.792 218.903 221.808 217.561Z" fill="#FFC3A7"/>
<path fill-rule="evenodd" clip-rule="evenodd" d="M311.993 392.635C312.684 392.636 313.381 392.598 314.069 392.646C316.46 392.805 318.702 392.311 320.779 391.047C320.684 392.872 321.167 394.636 321.284 396.439C321.388 398.056 322.335 399.202 323.304 400.409C325.516 403.176 327.566 406.086 329.681 408.937C330.246 409.805 330.08 410.602 329.415 411.293C328.631 412.11 327.69 412.133 326.753 411.654C321.696 409.059 316.618 406.494 312.818 401.913C312.784 398.797 312.273 395.726 311.993 392.635Z" fill="#FFC3A7"/>
<path fill-rule="evenodd" clip-rule="evenodd" d="M280.748 420.091C279.302 421.529 278.496 421.658 276.67 420.87C276.101 420.624 275.668 420.028 274.965 420.125C272.318 419.128 270.406 417.015 268.273 415.244C267.625 414.706 267.069 414.042 266.502 413.406C265.7 412.507 264.909 411.78 263.556 411.892C262.425 411.985 261.413 411.212 261.482 409.995C261.666 406.716 262.366 403.554 264.385 400.886C265.693 400.816 266.049 401.933 266.557 402.835C268.944 407.069 272.539 410.059 276.269 413.488C276.326 411.944 275.746 411.043 275.43 410.065C275.012 408.767 274.01 407.638 274.356 406.112C274.856 406.318 275.166 406.744 275.494 407.158C277.509 409.703 279.107 412.53 280.57 415.448C281.339 416.981 281.435 418.51 280.748 420.091Z" fill="#263A76"/>
<path fill-rule="evenodd" clip-rule="evenodd" d="M312.817 401.913C313.606 401.677 314.005 402.287 314.411 402.779C316.73 405.596 319.84 407.202 322.88 408.914C324.118 409.611 325.374 410.281 326.637 410.936C328.626 411.966 329.208 411.647 329.612 409.337C329.635 409.205 329.658 409.073 329.68 408.941C330.764 409.798 331.596 410.906 332.44 412C332.849 412.534 333.102 413.139 333.209 413.82C333.604 416.423 332.11 418.057 329.634 417.584C327.039 417.089 324.624 415.973 322.199 414.926C320.121 414.025 318.187 412.846 316.351 411.482C315.916 411.161 315.494 410.805 315.11 411.567C314.629 412.527 313.91 412.021 313.263 411.852C312.525 411.658 312.256 411.104 312.27 410.343C312.323 407.523 312.188 404.691 312.817 401.913Z" fill="#263A76"/>
<path fill-rule="evenodd" clip-rule="evenodd" d="M198.338 319.096C197.763 318.959 197.193 319.005 196.629 319.16C195.176 319.554 193.739 319.459 192.269 319.189C190.564 318.875 188.826 319.053 187.102 319.063C186.412 318.939 185.725 318.799 185.033 318.69C182.552 318.297 181.381 316.815 181.502 314.141C181.527 313.608 181.701 313.084 181.287 312.633C188.406 312.599 195.525 312.488 202.642 312.654C203.62 315.123 202.935 317.847 201.009 319.007C200.153 319.52 199.251 319.869 198.338 319.096Z" fill="#818181"/>
<path fill-rule="evenodd" clip-rule="evenodd" d="M274.356 406.113C275.094 407.89 275.843 409.66 276.565 411.442C276.762 411.934 276.905 412.452 277.028 412.97C277.121 413.369 277.098 413.784 276.72 414.042C276.312 414.321 276.011 414.069 275.713 413.789C274.522 412.679 273.267 411.632 272.139 410.456C269.751 407.96 267.117 405.67 265.713 402.309C265.482 401.758 265.145 401.255 264.543 401.055C264.193 398.875 264.967 397.066 266.224 395.412C267.848 396.557 269.687 397.063 271.588 397.38C272.218 397.486 272.861 397.506 273.441 397.831C272.639 400.725 273.573 403.41 274.356 406.113Z" fill="#FFC3A7"/>
<path fill-rule="evenodd" clip-rule="evenodd" d="M160.943 410.358C161.791 410.495 161.566 411.199 161.621 411.76C161.759 413.157 162.15 413.629 163.412 413.938C163.535 413.967 163.663 413.978 163.788 413.999C166.734 414.474 167.148 414.247 168.248 411.555C169.001 412.951 169.259 414.447 169.077 416.031C168.771 418.669 166.673 420.845 164.279 421.008C161.551 421.198 159.489 419.556 158.85 416.676C158.312 414.242 158.952 412.17 160.62 410.418C160.733 410.432 160.842 410.411 160.943 410.358Z" fill="#273B76"/>
<path fill-rule="evenodd" clip-rule="evenodd" d="M207.975 163.011C206.019 164.451 203.733 164.743 201.458 165.037C200.7 165.135 199.943 165.129 199.181 165.326C197.511 165.759 195.899 164.998 194.249 164.888C193.372 164.83 192.471 164.588 191.653 164.241C190.742 163.853 190.623 164.612 190.259 165.064C190.223 163.324 190.189 161.583 190.153 159.842C192.276 160.638 194.467 160.956 196.72 161.029C200.374 161.147 203.991 160.871 207.586 160.209C207.489 161.177 207.932 162.065 207.975 163.011Z" fill="#E3A285"/>
<path fill-rule="evenodd" clip-rule="evenodd" d="M334.725 211.54C330.946 212.121 328.424 208.187 328.479 204.643C328.543 200.511 331.451 197.51 335.463 197.459C338.815 197.418 341.835 200.261 341.676 204.595C341.517 208.968 339.053 211.552 334.725 211.54Z" fill="#E5D2FF"/>
<path fill-rule="evenodd" clip-rule="evenodd" d="M218.346 414.735C218.57 415.812 218.383 417.135 219.652 417.64C221.106 418.218 222.634 418.357 224.151 417.932C225.056 417.68 224.994 416.499 225.653 415.974C226.802 417.966 226.596 419.974 225.616 421.929C224.811 423.538 223.483 424.459 221.735 424.453C219.958 424.446 218.498 423.657 217.571 422.009C216.289 419.731 216.614 416.816 218.346 414.735Z" fill="#273B77"/>
<path fill-rule="evenodd" clip-rule="evenodd" d="M227.911 143.56C227.636 143.074 227.826 142.702 228.177 142.368C229.457 142.214 230.028 141.335 230.314 140.124C230.763 138.227 231.107 136.314 231.228 134.361C231.273 133.618 231.283 132.872 231.808 132.282C231.957 131.611 231.606 130.834 232.2 130.243C232.818 130.211 232.571 130.998 232.983 131.146C232.952 134.165 232.951 137.185 232.252 140.144C232.13 140.663 232.006 141.185 231.853 141.696C231.186 143.932 230.135 144.425 227.911 143.56Z" fill="#F3F4F6"/>
<path fill-rule="evenodd" clip-rule="evenodd" d="M166.697 134.41C167.11 134.171 166.961 133.522 167.55 133.251C168.147 134.026 167.259 134.879 167.602 135.624C168.355 137.229 167.988 139.022 168.371 140.695C168.577 141.594 168.703 142.521 168.866 143.434C169.154 145.022 169.867 145.644 171.349 144.823C171.772 145.113 171.896 145.588 172.038 146.05C171.918 146.204 171.804 146.366 171.673 146.508C170.164 148.153 168.772 147.932 167.797 145.861C167.111 144.403 166.902 142.814 166.729 141.217C166.484 138.947 166.812 136.678 166.697 134.41Z" fill="#F5F6F8"/>
<path fill-rule="evenodd" clip-rule="evenodd" d="M179.794 236.028C178.717 235.894 177.642 235.749 176.564 235.627C175.677 235.527 175.104 235.149 175.24 234.089C175.247 234.024 175.238 233.956 175.239 233.889C175.302 227.85 174.599 221.834 174.751 215.796C174.792 214.133 174.073 212.492 174.648 210.822C177.808 218.898 179.504 227.307 179.794 236.028Z" fill="#C56648"/>
<path fill-rule="evenodd" clip-rule="evenodd" d="M267.709 300.031C268.105 301.257 268.085 302.484 267.734 303.716C267.726 302.486 267.718 301.258 267.709 300.031Z" fill="#B73C67"/>
<path fill-rule="evenodd" clip-rule="evenodd" d="M200.811 148.516C197.827 148.799 194.408 146.212 193.477 143.646C192.862 141.947 193.111 141.603 194.785 141.787C198.097 142.15 201.424 141.943 204.744 142.018C205.448 142.033 206.157 141.988 206.852 142.075C207.754 142.186 207.978 142.562 207.649 143.43C206.601 146.203 204.39 148.732 200.811 148.516Z" fill="white"/>
<path fill-rule="evenodd" clip-rule="evenodd" d="M171.349 144.823C170.975 145.432 170.729 146.389 169.952 146.32C169.003 146.237 168.779 145.209 168.528 144.382C167.662 141.53 167.551 138.585 167.601 135.622C168.399 135.584 168.753 136.084 168.877 136.819C169.355 139.607 170.401 142.198 171.349 144.823Z" fill="#2D407A"/>
<path fill-rule="evenodd" clip-rule="evenodd" d="M231.808 132.282C231.943 135.433 231.466 138.501 230.591 141.5C230.164 142.963 229.733 143.078 228.176 142.369C229.117 139.353 230.252 136.391 230.626 133.212C230.722 132.411 231.176 132.256 231.808 132.282Z" fill="#2C3F79"/>
<path fill-rule="evenodd" clip-rule="evenodd" d="M187.897 135.052C187.906 136.378 186.97 137.467 185.836 137.454C184.759 137.442 183.811 136.406 183.802 135.225C183.791 133.981 184.8 132.969 186.019 133.001C187.153 133.031 187.889 133.835 187.897 135.052Z" fill="#2C3F78"/>
<path fill-rule="evenodd" clip-rule="evenodd" d="M213.783 136.69C212.761 136.724 211.849 135.784 211.829 134.677C211.809 133.576 212.652 132.561 213.65 132.487C214.687 132.41 215.622 133.286 215.688 134.399C215.759 135.591 214.874 136.655 213.783 136.69Z" fill="#2B3E78"/>
<path fill-rule="evenodd" clip-rule="evenodd" d="M225.318 409.594C225.938 410.467 225.559 411.469 225.643 412.411C225.028 411.535 225.385 410.539 225.318 409.594Z" fill="#DCB1F0"/>
<path fill-rule="evenodd" clip-rule="evenodd" d="M283.885 305.279C283.866 304.035 283.724 302.778 284.182 301.574C284.177 302.818 284.511 304.092 283.885 305.279Z" fill="#B73C67"/>
<path fill-rule="evenodd" clip-rule="evenodd" d="M201.879 256.268C202.429 258.789 203.852 261.052 205.721 262.724C207.569 264.375 209.741 265.312 212.052 266.001C216.772 267.409 221.902 268.136 226.799 267.546C227.812 267.424 228.836 267.242 229.836 266.969C229.392 266.944 228.973 266.855 228.642 266.443C227.362 264.852 225.787 263.544 224.696 261.769C222.457 258.132 220.93 254.127 219.235 250.211C218.922 249.487 218.822 248.662 218.623 247.882C218.515 246.884 217.85 246.566 217.027 246.463C215.939 246.328 214.852 246.389 213.764 246.458C210.836 246.643 207.909 246.735 204.98 246.787C204.348 247.517 203.764 248.294 203.248 249.121C201.909 251.265 201.326 253.734 201.879 256.268Z" fill="#993457"/>
<path fill-rule="evenodd" clip-rule="evenodd" d="M88.5845 246.635C89.2872 246.605 89.991 246.546 90.6947 246.546C214.396 246.542 338.1 246.54 461.802 246.548C464.64 246.548 464.198 246.167 464.232 249.125C464.255 251.076 464.247 253.031 464.229 254.982C464.223 255.426 464.4 255.939 463.957 256.291C459.988 256.644 456.011 256.405 452.042 256.443C339.53 257.538 227.015 256.667 114.504 256.833C106.252 256.843 97.9803 256.49 89.7165 256.448C89.064 256.446 88.3666 256.531 88.404 255.487C88.5055 252.537 88.1883 249.577 88.5845 246.635Z" fill="#263A76"/>
<path fill-rule="evenodd" clip-rule="evenodd" d="M404.251 260.73C411.716 282.208 419.185 303.685 426.647 325.164C433.299 344.306 439.937 363.454 446.591 382.595C451.421 396.493 456.267 410.386 461.091 424.286C461.323 424.954 461.783 425.594 461.499 426.474C459.677 426.717 457.822 426.547 455.975 426.578C455.195 426.591 455.116 425.952 454.918 425.379C453.446 421.148 451.948 416.928 450.477 412.698C443.347 392.17 436.223 371.641 429.092 351.112C422.206 331.281 415.313 311.451 408.419 291.621C405.418 282.981 402.411 274.344 399.33 265.488C398.208 267.692 397.625 269.892 396.886 272.014C388.173 297.015 379.481 322.026 370.798 347.042C363.388 368.388 355.999 389.743 348.594 411.09C346.971 415.769 345.279 420.418 343.714 425.116C343.324 426.286 342.774 426.708 341.639 426.611C340.054 426.474 338.45 426.755 336.685 426.402C337.454 424.17 338.187 422.029 338.93 419.893C345.797 400.119 352.662 380.342 359.536 360.572C366.939 339.282 374.352 317.997 381.758 296.708C385.755 285.212 389.744 273.714 393.741 262.215C393.872 261.836 394.033 261.469 394.179 261.098C394.305 260.238 394.836 259.818 395.611 259.764C397.96 259.604 400.31 259.583 402.658 259.786C403.295 259.84 403.893 260.089 404.251 260.73Z" fill="#263A76"/>
<path fill-rule="evenodd" clip-rule="evenodd" d="M159.962 260.73C166.899 280.69 173.835 300.654 180.77 320.618C187.441 339.824 194.11 359.033 200.785 378.235C206.123 393.587 211.471 408.934 216.802 424.287C217.034 424.956 217.499 425.595 217.211 426.474C215.388 426.717 213.536 426.547 211.687 426.578C210.908 426.592 210.829 425.951 210.631 425.38C209.143 421.082 207.633 416.796 206.14 412.502C199.027 392.038 191.917 371.576 184.806 351.111C177.914 331.281 171.024 311.451 164.131 291.62C161.128 282.981 158.122 274.343 155.042 265.492C153.918 267.689 153.337 269.892 152.598 272.012C143.884 297.014 135.194 322.026 126.511 347.04C119.101 368.388 111.711 389.742 104.305 411.09C102.682 415.769 100.99 420.418 99.4263 425.116C99.0375 426.288 98.4854 426.708 97.3502 426.611C95.7664 426.474 94.1602 426.755 92.397 426.402C93.166 424.17 93.8975 422.029 94.6397 419.893C101.508 400.119 108.374 380.342 115.248 360.573C123.375 337.199 131.512 313.83 139.641 290.458C142.914 281.044 146.179 271.628 149.45 262.215C149.581 261.835 149.743 261.469 149.89 261.098C150.003 260.352 150.413 259.858 151.128 259.804C153.654 259.61 156.185 259.486 158.701 259.921C159.199 260.006 159.664 260.25 159.962 260.73Z" fill="#263A76"/>
<path fill-rule="evenodd" clip-rule="evenodd" d="M159.962 260.73C157.179 260.023 154.347 260.416 151.537 260.288C150.806 260.254 150.329 260.584 149.888 261.098C149.464 260.171 148.65 260.562 148.015 260.56C141.984 260.528 135.953 260.541 129.92 260.541C124.017 260.541 118.114 260.541 112.212 260.54C111.763 260.54 111.313 260.526 110.864 260.536C110.185 260.553 109.802 260.322 109.785 259.503C109.766 258.583 110.194 257.394 109.54 256.803C108.771 256.106 107.573 256.55 106.564 256.546C100.982 256.517 95.4001 256.538 89.818 256.527C88.2192 256.524 88.2032 256.5 88.1925 254.885C88.1765 252.529 88.1754 250.175 88.2032 247.817C88.2064 247.411 87.9458 246.844 88.5834 246.635C88.5855 249.328 88.5695 252.023 88.5984 254.718C88.6133 256.142 88.6592 256.152 90.0241 256.21C90.2793 256.221 90.5378 256.213 90.7941 256.213C207.668 256.23 324.545 256.245 441.419 256.257C448.162 256.257 454.905 256.225 461.646 256.218C462.416 256.216 463.185 256.264 463.956 256.291C463.309 256.738 462.584 256.515 461.901 256.518C456.138 256.539 450.375 256.525 444.613 256.535C443.063 256.539 443.063 256.563 443.033 258.194C443.029 258.464 443.039 258.731 443.031 259.001C442.992 260.496 442.992 260.528 441.491 260.532C436.498 260.55 431.505 260.54 426.51 260.54C419.853 260.54 413.193 260.537 406.535 260.543C405.771 260.543 404.995 260.442 404.25 260.729C401.27 259.887 398.231 260.459 395.223 260.326C394.698 260.302 394.541 260.863 394.176 261.096C394.066 260.726 393.809 260.569 393.458 260.561C392.815 260.55 392.176 260.541 391.535 260.541C315.235 260.54 238.935 260.539 162.637 260.545C161.744 260.546 160.839 260.413 159.962 260.73Z" fill="#385092"/>
</svg>
