<svg width="144" height="151" viewBox="0 0 144 151" fill="none" xmlns="http://www.w3.org/2000/svg">
<path fill-rule="evenodd" clip-rule="evenodd" d="M17.6509 43.6265L4.07114 27.3289L18.5101 31.4391C18.2862 34.2242 20.997 36.6394 24.6177 36.8799C28.2396 37.1211 31.4507 35.1004 31.8537 32.3261C32.2571 29.5522 29.705 27.0374 26.1046 26.6594L25.9793 9.16837L45.5228 18.4403C43.5171 21.5672 45.151 25.3505 49.1931 26.9371C53.2352 28.524 58.187 27.3255 60.3137 24.2462C62.4399 21.1666 60.9533 17.3462 56.9755 15.6678L71.2895 0.853027L85.604 15.6678C81.6261 17.3462 80.1396 21.1666 82.2658 24.2462C84.392 27.3255 89.3443 28.524 93.3859 26.9371C97.428 25.3505 99.0623 21.5672 97.0567 18.4403L116.6 9.16837L116.475 26.6594C112.873 27.0374 110.322 29.5522 110.725 32.3261C111.129 35.1004 114.339 37.1211 117.96 36.8799C121.582 36.6394 124.293 34.2242 124.069 31.4391L138.508 27.3289L125.142 43.3705C107.838 39.9463 89.994 38.1986 72.0352 38.1986C53.6351 38.1986 35.3542 40.0335 17.6509 43.6265ZM143.618 51.3798C120.511 44.8865 96.2736 41.6393 72.0352 41.6393C47.7976 41.6393 23.5592 44.8865 0.452271 51.3798L13.959 126.445C26.4267 136.757 46.3617 145.182 71.2886 150.14L72.0352 150.147L72.7818 150.14C97.7096 145.182 117.644 136.757 130.111 126.445L143.618 51.3798ZM132.877 56.449C113.237 51.5943 92.6935 49.1153 72.0352 49.1153C51.3769 49.1153 30.8348 51.5953 11.1932 56.449L23.1672 122.995C36.0603 132.722 54.8343 138.982 72.0352 142.558C89.2369 138.982 108.01 132.722 120.903 122.996L132.877 56.449Z" fill="#C95BF5"/>
<path d="M116.301 93.4993C115.739 96.5378 113.303 98.7125 109.038 99.8383C105.618 100.617 102.227 101.336 98.8219 101.967C95.4401 102.594 92.0345 103.132 88.6418 103.664C88.4467 108.098 88.2525 112.525 88.0514 116.967C87.8528 121.394 87.6534 125.828 87.4579 130.254C85.6706 130.824 83.8789 131.382 82.0823 131.897C80.295 132.408 78.4853 132.884 76.6835 133.339C76.6835 120.491 76.6835 107.635 76.6835 94.7872C76.6835 81.9397 76.6835 69.0755 76.6835 56.2202C83.0115 56.4284 89.3667 56.707 95.7048 57.3233C102.067 57.941 108.385 58.8888 114.691 59.9292C119.576 60.8778 121.749 62.8904 121.232 65.914C120.412 70.5102 119.585 75.1142 118.764 79.71C117.943 84.3062 117.122 88.9034 116.301 93.4993ZM104.248 92.5969C104.719 88.3868 105.189 84.1683 105.654 79.9731C106.119 75.7701 106.588 71.5516 107.06 67.3486C104.27 67.109 101.477 66.8896 98.686 66.7161C95.8967 66.5425 93.1062 66.4235 90.3112 66.2994C90.1026 70.958 89.8918 75.6234 89.6853 80.289C89.4789 84.931 89.2768 89.5899 89.0638 94.2475C91.5949 93.9932 94.1274 93.7346 96.6528 93.4613C99.1852 93.1871 101.717 92.8979 104.248 92.5969Z" fill="#C95BF5"/>
<path d="M67.387 133.339C65.8707 132.946 64.3526 132.563 62.8495 132.144C61.341 131.723 59.8375 131.272 58.3392 130.81C55.2 122.279 52.0243 113.907 48.3983 105.851C44.8582 97.9861 40.8726 90.5026 36.8408 83.3303C37.597 85.3506 38.0548 86.9546 38.1886 88.1124C38.9007 94.2123 39.6107 100.322 40.3207 106.422C41.0315 112.523 41.7424 118.631 42.4536 124.725C40.7723 123.907 39.0539 123.048 37.3694 122.109C35.6321 121.143 33.916 120.073 32.1615 118.94C30.4397 109.345 28.7156 99.7505 26.995 90.1554C25.2758 80.5614 23.5517 70.9517 21.8342 61.3488C23.7612 60.9633 25.6957 60.5667 27.6372 60.2076C29.573 59.8499 31.5282 59.5289 33.4833 59.2129C37.8113 65.5444 42.1257 72.2224 45.9749 79.3585C49.9354 86.7003 53.4377 94.4361 56.9034 102.373C56.3255 100.028 55.9963 98.2231 55.9426 96.9429C55.6609 90.2561 55.3981 83.5767 55.1186 76.8977C54.8382 70.2112 54.5623 63.5081 54.2894 56.8139C56.4765 56.6749 58.6623 56.5284 60.845 56.4362C63.0264 56.3433 65.2091 56.2819 67.387 56.2202C67.387 69.0768 67.387 81.9423 67.387 94.7911C67.387 107.64 67.387 120.498 67.387 133.339Z" fill="#C95BF5"/>
</svg>
